<svg width="24" height="24" viewBox="0 0 24 24" fill="none" xmlns="http://www.w3.org/2000/svg">
<path fill-rule="evenodd" clip-rule="evenodd" d="M4.31281 2H8.90594C10.1812 2 11.2188 3.03754 11.2188 4.31281V8.90594C11.2188 10.1812 10.1812 11.2188 8.90594 11.2188H4.31281C3.03754 11.2188 2 10.1812 2 8.90594V4.31281C2 3.03754 3.03754 2 4.31281 2ZM8.90594 9.65625C9.31965 9.65625 9.65625 9.31965 9.65625 8.90594V4.31281C9.65625 3.8991 9.31965 3.5625 8.90594 3.5625H4.31281C3.8991 3.5625 3.5625 3.8991 3.5625 4.31281V8.90594C3.5625 9.31965 3.8991 9.65625 4.31281 9.65625H8.90594ZM15.1251 2H19.6563C20.9486 2 22.0001 3.05141 22.0001 4.34375V8.875C22.0001 10.1673 20.9486 11.2188 19.6563 11.2188H15.1251C13.8327 11.2188 12.7813 10.1673 12.7813 8.875V4.34375C12.7813 3.05141 13.8327 2 15.1251 2ZM19.6563 9.65625C20.0871 9.65625 20.4376 9.30578 20.4376 8.875V4.34375C20.4376 3.91297 20.0871 3.5625 19.6563 3.5625H15.1251C14.6943 3.5625 14.3438 3.91297 14.3438 4.34375V8.875C14.3438 9.30578 14.6943 9.65625 15.1251 9.65625H19.6563ZM8.90594 12.7813H4.31281C3.03754 12.7813 2 13.8188 2 15.0941V19.6872C2 20.9625 3.03754 22 4.31281 22H8.90594C10.1812 22 11.2188 20.9625 11.2188 19.6872V15.0941C11.2188 13.8188 10.1812 12.7813 8.90594 12.7813ZM9.65625 19.6872C9.65625 20.1009 9.31965 20.4375 8.90594 20.4375H4.31281C3.8991 20.4375 3.5625 20.1009 3.5625 19.6872V15.0941C3.5625 14.6804 3.8991 14.3438 4.31281 14.3438H8.90594C9.31965 14.3438 9.65625 14.6804 9.65625 15.0941V19.6872ZM15.1251 12.7812H19.6563C20.9486 12.7812 22.0001 13.8327 22.0001 15.125V19.6562C22.0001 20.9486 20.9486 22 19.6563 22H15.1251C13.8327 22 12.7813 20.9486 12.7813 19.6562V15.125C12.7813 13.8327 13.8327 12.7812 15.1251 12.7812ZM19.6563 20.4375C20.0871 20.4375 20.4376 20.087 20.4376 19.6562V15.125C20.4376 14.6942 20.0871 14.3438 19.6563 14.3438H15.1251C14.6943 14.3438 14.3438 14.6942 14.3438 15.125V19.6562C14.3438 20.087 14.6943 20.4375 15.1251 20.4375H19.6563Z" fill="#A9B0B9"/>
</svg>
