<svg width="24" height="24" viewBox="0 0 24 24" fill="none" xmlns="http://www.w3.org/2000/svg">
<path d="M13.2647 11.9508L15.6758 14.3618C16.0091 14.6952 16.0085 15.2347 15.6758 15.5674C15.343 15.9001 14.8036 15.9008 14.4702 15.5674L12.0591 13.1563L9.64807 15.5674C9.31534 15.9001 8.77584 15.9008 8.44251 15.5674C8.10917 15.2341 8.10977 14.6946 8.4425 14.3618L10.8536 11.9508L8.4425 9.5397C8.10917 9.20637 8.10977 8.66687 8.4425 8.33414C8.77524 8.00141 9.31473 8.0008 9.64807 8.33414L12.0591 10.7452L14.4702 8.33414C14.8029 8.00141 15.3424 8.0008 15.6758 8.33414C16.0091 8.66748 16.0085 9.20697 15.6758 9.5397L13.2647 11.9508Z" fill="#FC5733"/>
<path fill-rule="evenodd" clip-rule="evenodd" d="M4.22323 4.22335C8.51436 -0.0677773 15.4956 -0.0677773 19.7868 4.22335C24.0779 8.51448 24.0773 15.4964 19.7868 19.7869C15.4962 24.0774 8.51436 24.078 4.22323 19.7869C-0.0678993 15.4958 -0.0678989 8.51448 4.22323 4.22335ZM5.42876 5.42889C1.80249 9.05516 1.8031 14.9557 5.42876 18.5814C9.05504 22.2076 14.955 22.2076 18.5812 18.5814C22.2075 14.9551 22.2069 9.05455 18.5812 5.42889C14.9556 1.80322 9.05504 1.80261 5.42876 5.42889Z" fill="#FC5733"/>
</svg>
