<svg width="24" height="24" viewBox="0 0 24 24" fill="none" xmlns="http://www.w3.org/2000/svg">
<path d="M19.6849 5.83635C20.105 5.41626 20.105 4.73516 19.6849 4.31507C19.2648 3.89498 18.5837 3.89498 18.1636 4.31507L12 10.4787L5.83635 4.31507C5.41626 3.89498 4.73516 3.89498 4.31507 4.31507C3.89498 4.73516 3.89498 5.41626 4.31507 5.83635L10.4787 12L4.31507 18.1636C3.89498 18.5837 3.89498 19.2648 4.31507 19.6849C4.73516 20.105 5.41626 20.105 5.83635 19.6849L12 13.5213L18.1636 19.6849C18.5837 20.105 19.2648 20.105 19.6849 19.6849C20.105 19.2648 20.105 18.5837 19.6849 18.1636L13.5213 12L19.6849 5.83635Z" fill="white"/>
</svg>
