<svg width="24" height="24" viewBox="0 0 24 24" fill="none" xmlns="http://www.w3.org/2000/svg">
<path fill-rule="evenodd" clip-rule="evenodd" d="M15.2727 4.5C15.2727 4.96024 15.6458 5.33333 16.1061 5.33333H20.1667C20.6269 5.33333 21 5.70643 21 6.16667V6.52337C21 6.78661 20.7866 7 20.5234 7C20.2801 7 20.0759 7.18315 20.0495 7.42494L18.7022 19.776C18.6361 20.3878 18.3505 20.953 17.9002 21.3635C17.45 21.7739 16.8668 22.0006 16.2626 22H7.73737C7.13316 22.0006 6.55002 21.7739 6.09979 21.3635C5.64957 20.9531 5.36396 20.3878 5.29776 19.7761L3.95044 7.42494C3.92407 7.18315 3.71986 7 3.47663 7C3.21339 7 3 6.78661 3 6.52337V6.16667C3 5.70643 3.3731 5.33333 3.83333 5.33333H7.89394C8.35417 5.33333 8.72727 4.96024 8.72727 4.5C8.728 3.83719 8.98684 3.20173 9.447 2.73306C9.90716 2.26438 10.5311 2.00074 11.1818 2H12.8182C13.4689 2.00074 14.0928 2.26438 14.553 2.73306C15.0132 3.20173 15.272 3.83719 15.2727 4.5ZM10.6035 3.91102C10.4502 4.06725 10.3639 4.27906 10.3636 4.5C10.3636 4.96024 10.7367 5.33333 11.197 5.33333H12.803C13.2633 5.33333 13.6364 4.96024 13.6364 4.5C13.6361 4.27906 13.5498 4.06725 13.3965 3.91102C13.2431 3.75479 13.0351 3.66691 12.8182 3.66667H11.1818C10.9649 3.66691 10.7569 3.75479 10.6035 3.91102ZM16.8085 20.1211C16.9585 19.9843 17.0537 19.7959 17.0758 19.592L18.3286 8.10845C18.3931 7.51675 17.9297 7 17.3345 7H6.6655C6.07029 7 5.60685 7.51675 5.6714 8.10845L6.9242 19.5921C6.94628 19.796 7.04148 19.9844 7.19155 20.1212C7.34161 20.258 7.53598 20.3335 7.73737 20.3333H16.2626C16.464 20.3335 16.6584 20.2579 16.8085 20.1211ZM12.8181 9.48487C12.8181 9.033 12.4518 8.66669 11.9999 8.66669C11.548 8.66669 11.1817 9.033 11.1817 9.48487V17.8485C11.1817 18.3004 11.548 18.6667 11.9999 18.6667C12.4518 18.6667 12.8181 18.3004 12.8181 17.8485V9.48487ZM15.2746 18.6616C14.825 18.6235 14.4911 18.2289 14.5278 17.7792L15.2122 9.40647C15.2491 8.95488 15.6458 8.61916 16.0973 8.65744C16.5468 8.69556 16.8808 9.09019 16.844 9.53985L16.1597 17.9126C16.1228 18.3642 15.7261 18.6999 15.2746 18.6616ZM8.79413 9.41927C8.75722 8.96768 8.36051 8.63196 7.90903 8.67024C7.45949 8.70836 7.12552 9.103 7.16227 9.55265L7.84662 17.9254C7.88353 18.377 8.28024 18.7127 8.73172 18.6744C9.18126 18.6363 9.51523 18.2416 9.47848 17.792L8.79413 9.41927Z" fill="#A9B0B9"/>
</svg>
