<svg width="120" height="120" viewBox="0 0 120 120" fill="none" xmlns="http://www.w3.org/2000/svg">
<path fill-rule="evenodd" clip-rule="evenodd" d="M33.1476 32.641H37.9588C38.0653 24.5719 44.6989 18 52.796 18H62.0763C70.1734 18 76.807 24.5719 76.9135 32.641H81.7247C88.4031 32.641 93.8703 38.1082 93.8703 44.7866V87.2908C93.8703 93.9693 88.4031 99.4365 81.7247 99.4365H33.1476C26.4692 99.4365 21.002 93.9693 21.002 87.2908V44.7866C21.002 38.1082 26.4692 32.641 33.1476 32.641ZM33.1476 35.6746H81.7247C86.7321 35.6746 90.8311 39.7736 90.8311 44.781V87.2852C90.8311 92.2927 86.7321 96.3917 81.7247 96.3917H33.1476C28.1402 96.3917 24.0412 92.2927 24.0412 87.2852V44.781C24.0412 39.7736 28.1402 35.6746 33.1476 35.6746ZM40.9924 32.641H73.8743C73.7677 26.2373 68.4968 21.0336 62.0707 21.0336H52.7904C46.3643 21.0336 41.0989 26.2373 40.9868 32.641H40.9924Z" fill="#DBDFE4"/>
<path fill-rule="evenodd" clip-rule="evenodd" d="M103.5 52.1979L89.8295 44.3054L87.138 48.9673L100.808 56.8598L103.5 52.1979ZM69.4338 44.3054L55.7637 52.1979L58.4552 56.8598L72.1253 48.9673L69.4338 44.3054ZM79.6333 99.5542C92.7951 99.5542 103.465 88.8845 103.465 75.7227C103.465 62.5609 92.7951 51.8912 79.6333 51.8912C66.4715 51.8912 55.8018 62.5609 55.8018 75.7227C55.8018 88.8845 66.4715 99.5542 79.6333 99.5542Z" fill="#F1F4F9"/>
<path fill-rule="evenodd" clip-rule="evenodd" d="M79.5042 63.2574C80.3397 63.2574 81.0238 63.9416 81.0238 64.7771V74.4106H94.1115C94.947 74.4106 95.6311 75.0947 95.6311 75.9302C95.6311 76.7657 94.947 77.4498 94.1115 77.4498H79.5042H79.465H79.4257H79.3865L79.3472 77.4442L79.3079 77.4386L79.2687 77.433L79.2294 77.4274L79.1902 77.4218L79.1509 77.4162L79.1173 77.405L79.0837 77.3937L79.05 77.3825L79.0164 77.3713L78.9827 77.3601L78.9491 77.3489L78.9154 77.3377L78.8818 77.3208L78.8481 77.304L78.8145 77.2872L78.7809 77.2704L78.7472 77.2536L78.7136 77.2367L78.6799 77.2199L78.6519 77.1975L78.6238 77.1751L78.5958 77.1526L78.5678 77.1302L78.5397 77.1078L78.5117 77.0853L78.4837 77.0629L78.4556 77.0405L78.4276 77.0124L78.3995 76.9844L78.3771 76.9564L78.3547 76.9283L78.3323 76.9003L78.3098 76.8722L78.2874 76.8442L78.265 76.8162L78.2425 76.7881L78.2201 76.7601L78.2033 76.7265L78.1865 76.6928L78.1696 76.6592L78.1528 76.6255L78.136 76.5919L78.1192 76.5582L78.1024 76.5246L78.0855 76.4909L78.0743 76.4573L78.0631 76.4237L78.0519 76.39L78.0407 76.3564L78.0295 76.3227L78.0182 76.2891L78.0126 76.2498L78.007 76.2106L78.0014 76.1713L77.9958 76.1321L77.9902 76.0928L77.9846 76.0536V76.0143V75.9751V75.9358V64.7827C77.9846 63.9472 78.6687 63.2631 79.5042 63.2631V63.2574ZM79.6332 48.852C81.921 48.852 84.1359 49.138 86.2555 49.6763C85.6331 48.3698 85.6443 46.7829 86.4182 45.4427C87.6686 43.2726 90.4723 42.5212 92.6368 43.7773L102.556 49.5081C104.726 50.7585 105.478 53.5622 104.222 55.7267C103.296 57.3248 101.53 58.1547 99.7974 57.9753C103.969 62.7079 106.498 68.9209 106.498 75.7283C106.498 90.5656 94.4704 102.599 79.6276 102.599C64.7904 102.599 52.7568 90.5712 52.7568 75.7283C52.7568 68.9265 55.2858 62.7135 59.4577 57.9753C57.725 58.1547 55.9587 57.3248 55.0334 55.7267C53.783 53.5566 54.5288 50.7585 56.6988 49.5081L66.6184 43.7773C68.7884 42.5268 71.5865 43.2726 72.837 45.4427C73.6108 46.7829 73.622 48.3698 72.9996 49.6763C75.1192 49.138 77.3341 48.852 79.622 48.852H79.6332ZM79.6332 51.8856C92.7938 51.8856 103.465 62.5565 103.465 75.7171C103.465 88.8777 92.7938 99.5486 79.6332 99.5486C66.4726 99.5486 55.8017 88.8777 55.8017 75.7171C55.8017 62.5565 66.4726 51.8856 79.6332 51.8856ZM101.042 52.1267L91.1228 46.396C90.3994 45.981 89.4686 46.2277 89.048 46.9511C88.6331 47.6744 88.8798 48.6053 89.6032 49.0258L99.5227 54.751C100.246 55.166 101.177 54.9192 101.597 54.1959C102.012 53.4725 101.766 52.5417 101.042 52.1211V52.1267ZM58.2297 52.1267L68.1492 46.396C68.8725 45.981 69.8034 46.2277 70.2239 46.9511C70.6389 47.6744 70.3922 48.6053 69.6688 49.0258L59.7493 54.751C59.0259 55.166 58.0951 54.9192 57.6745 54.1959C57.2596 53.4725 57.5063 52.5417 58.2297 52.1211V52.1267Z" fill="#DBDFE4"/>
</svg>
