<svg width="48" height="48" viewBox="0 0 48 48" fill="none" xmlns="http://www.w3.org/2000/svg">
<circle opacity="0.2" cx="24" cy="24" r="24" fill="#53D500"/>
<path fill-rule="evenodd" clip-rule="evenodd" d="M29.5719 16H20.4576C19.854 16 19.4386 16.7669 19.4386 17.3797V18.0737L18.1144 18.0605C17.6835 18.0605 17.3333 18.4165 17.3333 18.8537V32.5401C17.3333 32.9773 17.6835 33.3333 18.1144 33.3333H27.8554C28.2863 33.3333 28.5614 33.0849 28.5614 32.6477V31.2597L29.5719 31.2722C30.1754 31.2722 30.6667 30.7739 30.6667 30.1611V17.1111C30.6667 16.4983 30.1754 16 29.5719 16ZM25.0526 19.4617L27.1579 21.5437L25.2912 21.5617C25.2344 21.5617 25.0526 21.6013 25.0526 21.5437V19.4617ZM29.2632 30.5657H28.5614L28.6365 21.9621C28.6365 21.9587 28.6358 21.9559 28.6358 21.9524C28.6337 21.8518 28.5944 21.7533 28.5214 21.679L25.0723 18.1778C25.0716 18.1778 25.0716 18.1778 25.0716 18.1771C25 18.1049 24.9018 18.0605 24.7937 18.0605H20.1516L20.1404 17.3797C20.1579 16.762 20.2477 16.651 20.8421 16.6857H29.2632C29.8912 16.6426 30.0007 16.8606 29.9649 17.3797L29.8779 30.1611C29.8779 30.3325 29.4323 30.5657 29.2632 30.5657Z" fill="#53D500"/>
</svg>
