<svg width="24" height="24" viewBox="0 0 24 24" fill="none" xmlns="http://www.w3.org/2000/svg">
<path fill-rule="evenodd" clip-rule="evenodd" d="M15.3332 14.4996C15.3332 14.0394 15.7063 13.6663 16.1665 13.6663C16.6268 13.6663 16.9998 14.0394 16.9998 14.4996V19.4995C16.9998 19.9597 16.6268 20.3328 16.1665 20.3328H12V21.1664C12 21.6923 11.5189 22.0867 11.0033 21.9835L2.6702 20.3169C2.28068 20.239 2.0003 19.897 2.0003 19.4998V2.86517C1.99952 2.83431 2.00026 2.80345 2.00268 2.77267C2.00405 2.75357 2.00612 2.73471 2.00874 2.71607L2.01006 2.70744C2.01315 2.68701 2.0169 2.66686 2.02139 2.64701L2.02272 2.64073C2.02725 2.62143 2.03233 2.60237 2.03815 2.5837C2.12869 2.28351 2.37786 2.03207 2.76012 2.00324C2.78434 2.00114 2.80875 1.99996 2.8334 2H2.83363H16.1666C16.6268 2 16.9999 2.37308 16.9999 2.8333V7.83315C16.9999 8.29337 16.6268 8.66644 16.1666 8.66644C15.7064 8.66644 15.3333 8.29337 15.3333 7.83315V3.66659H8.51135L11.4062 4.53504C11.7586 4.64078 12 4.96522 12 5.33322V5.33353V18.6661H15.3332V14.4996ZM3.66693 18.8166L10.3334 20.1499V19.4994V5.95355L3.66693 3.95361V18.8166ZM21.8246 11.6745C21.8197 11.6812 21.8149 11.6878 21.8096 11.6943C21.7923 11.7154 21.7741 11.7356 21.7548 11.7549L21.7544 11.7554L19.2545 14.2553C18.929 14.5807 18.4014 14.5807 18.076 14.2553C17.7506 13.9299 17.7506 13.4022 18.076 13.0768L19.1534 11.9994H14.4987C14.0385 11.9994 13.6654 11.6264 13.6654 11.1661C13.6654 10.7059 14.0385 10.3328 14.4987 10.3328H19.1534L18.076 9.25545C17.7506 8.93003 17.7506 8.40239 18.076 8.07697C18.4014 7.75155 18.9291 7.75155 19.2545 8.07697L21.7544 10.5769L21.7549 10.5774C21.7741 10.5966 21.7923 10.6169 21.8096 10.6379C21.8149 10.6444 21.8197 10.651 21.8246 10.6577C21.827 10.6611 21.8294 10.6644 21.8319 10.6677C21.8341 10.6707 21.8363 10.6736 21.8386 10.6766C21.8453 10.6854 21.852 10.6942 21.8582 10.7035C21.864 10.7122 21.8693 10.7213 21.8746 10.7303C21.8765 10.7335 21.8784 10.7367 21.8802 10.7398C21.8823 10.7433 21.8844 10.7467 21.8864 10.7501C21.8911 10.7578 21.8958 10.7654 21.9 10.7734C21.905 10.7827 21.9095 10.7922 21.9139 10.8018C21.9153 10.8049 21.9168 10.8081 21.9183 10.8113C21.924 10.8232 21.9299 10.835 21.935 10.8473C21.9387 10.8561 21.9418 10.8651 21.945 10.8741C21.9462 10.8776 21.9474 10.8812 21.9487 10.8847C21.9498 10.8878 21.951 10.8909 21.9521 10.894C21.9558 10.904 21.9594 10.914 21.9625 10.9242C21.9653 10.9333 21.9675 10.9425 21.9697 10.9517C21.9705 10.9551 21.9714 10.9586 21.9722 10.9621C21.9731 10.9656 21.974 10.969 21.9749 10.9725C21.9776 10.9827 21.9802 10.9929 21.9823 11.0033C21.9852 11.0179 21.987 11.0327 21.9891 11.0474C21.9908 11.0596 21.9931 11.0715 21.9943 11.0838C21.9997 11.1385 21.9997 11.1936 21.9943 11.2483C21.9936 11.2563 21.9923 11.2641 21.991 11.2719C21.9904 11.2762 21.9897 11.2805 21.9891 11.2848C21.9885 11.2884 21.988 11.2921 21.9875 11.2957C21.986 11.3068 21.9845 11.3179 21.9823 11.3289C21.9803 11.3394 21.9776 11.3496 21.9749 11.3599C21.974 11.3633 21.9731 11.3667 21.9723 11.3702C21.9714 11.3737 21.9705 11.3772 21.9697 11.3807C21.9675 11.3898 21.9653 11.3989 21.9625 11.408C21.9595 11.4181 21.9559 11.4279 21.9523 11.4377C21.9511 11.441 21.9499 11.4443 21.9487 11.4476C21.9442 11.4601 21.9401 11.4726 21.935 11.485C21.9313 11.494 21.9271 11.5027 21.9229 11.5115C21.9213 11.5146 21.9198 11.5178 21.9183 11.521C21.9168 11.5243 21.9152 11.5275 21.9137 11.5308C21.9094 11.5402 21.905 11.5496 21.9 11.5589C21.8956 11.5671 21.8908 11.575 21.886 11.5829C21.884 11.5861 21.8821 11.5893 21.8802 11.5924C21.8783 11.5956 21.8765 11.5987 21.8747 11.6018C21.8693 11.6109 21.864 11.62 21.8581 11.6288C21.8521 11.6378 21.8455 11.6465 21.839 11.6551C21.8366 11.6583 21.8342 11.6614 21.8318 11.6646C21.8294 11.6679 21.827 11.6712 21.8246 11.6745Z" fill="#A9B0B9"/>
</svg>
