<svg width="120" height="120" viewBox="0 0 120 120" fill="none" xmlns="http://www.w3.org/2000/svg">
<path fill-rule="evenodd" clip-rule="evenodd" d="M59.9179 15C84.7258 15 104.836 35.11 104.836 59.9179C104.836 84.7258 84.7258 104.836 59.9179 104.836C35.11 104.836 15 84.7258 15 59.9179C15 35.11 35.11 15 59.9179 15ZM73.4746 52.7883C74.1998 49.9748 74.5812 46.8649 74.3907 43.8185C78.7962 47.7813 81.5663 53.5272 81.5663 59.9179C81.5663 61.6462 81.3637 63.3272 80.9809 64.9385C79.081 65.6156 77.2793 66.5162 75.7227 67.4943C71.3527 70.2431 67.1376 74.6779 66.5863 80.0387C66.5696 80.2029 66.5565 80.3667 66.547 80.5301C64.8691 81.0694 63.1019 81.4096 61.2732 81.5228C61.7858 79.9063 62.0832 78.1497 62.3862 76.3597C63.0534 72.4186 63.7479 68.3159 66.8277 65.1923C70.0881 61.8814 72.3217 57.2556 73.4746 52.7883ZM66.725 83.266C64.6162 83.88 62.389 84.2161 60.0857 84.2322C59.7777 84.7461 59.4239 85.233 59.0135 85.6878C56.4376 88.5447 52.6188 88.8942 49.0126 88.4762C44.2426 87.925 39.9087 86.1201 36.5222 82.6616C29.4393 75.4346 28.8809 63.5855 30.077 54.1285C32.3287 36.3314 40.2077 28.1534 58.6316 28.3407H58.6281C63.4124 28.3912 67.8653 29.9655 70.8915 33.8132C72.3208 35.6296 73.2606 37.7317 73.8116 39.9605C74.5761 40.4938 75.3085 41.07 76.0053 41.6854C76.6574 39.4762 78.7013 37.866 81.1198 37.866C84.0667 37.866 86.4517 40.2546 86.4517 43.198C86.4517 43.2474 86.451 43.2966 86.4497 43.3457C87.0136 43.2184 87.6003 43.1512 88.2026 43.1512C92.5799 43.1512 96.1285 46.6998 96.1285 51.077C96.1285 55.4543 92.5799 59.0029 88.2026 59.0029C86.7213 59.0029 85.3349 58.5965 84.1488 57.8891C84.2041 58.558 84.2322 59.2347 84.2322 59.9179C84.2322 61.348 84.1088 62.7493 83.8719 64.1116C85.905 63.6777 87.9651 63.5621 89.8883 63.9276L91.9238 64.3131L92.0535 66.381L92.0499 66.3774C92.3273 70.8339 90.4647 75.802 88.1302 79.5307C84.1709 85.8534 77.0052 91.4087 69.2991 87.9898L68.4921 87.6331L68.0598 86.8657C67.4153 85.7236 66.9636 84.5166 66.725 83.266ZM83.1764 67.0268C85.3958 66.3972 87.5589 66.1956 89.3875 66.5432C89.9315 75.2652 80.2512 89.9352 70.3799 85.5508C69.7814 84.4899 69.4242 83.4234 69.2742 82.3661C75.9103 79.5967 81.0562 73.9717 83.1764 67.0268ZM69.3783 79.3927C74.1065 77.0917 77.8716 73.1203 79.9055 68.2465C74.9212 70.549 70.345 74.7297 69.3783 79.3927ZM59.9179 17.666C83.2523 17.666 102.17 36.5835 102.17 59.9179C102.17 83.2523 83.2523 102.17 59.9179 102.17C36.5835 102.17 17.666 83.2523 17.666 59.9179C17.666 36.5835 36.5835 17.666 59.9179 17.666ZM64.9255 63.3189C73.8204 54.2942 76.2558 31.1868 58.5992 31.0067C40.939 30.8265 34.7136 38.6911 32.7178 54.4636C30.7255 70.236 34.7533 84.1495 49.3152 85.8283C57.8637 86.8139 58.6898 81.9951 59.7137 76.0214C60.434 71.8193 61.2523 67.0456 64.9255 63.3189ZM41.7499 58.6894L52.0391 68.9786C52.5579 69.4974 52.5579 70.344 52.0391 70.8628C51.5203 71.3816 50.6737 71.3816 50.1549 70.8628L39.8658 60.5736C39.347 60.0548 39.347 59.2082 39.8658 58.6894C40.3845 58.1706 41.2312 58.1706 41.7499 58.6894ZM54.8744 38.6515L65.1636 48.9406C65.6824 49.4594 65.6824 50.306 65.1636 50.8248C64.6448 51.3436 63.7982 51.3436 63.2794 50.8248L52.9902 40.5356C52.4715 40.0169 52.4715 39.1702 52.9902 38.6515C53.509 38.1327 54.3556 38.1327 54.8744 38.6515ZM43.8107 43.0503L54.0998 53.3395C54.6186 53.8583 54.6186 54.7049 54.0998 55.2237C53.5811 55.7425 52.7344 55.7425 52.2157 55.2237L41.9265 44.9345C41.4077 44.4157 41.4077 43.5691 41.9265 43.0503C42.4453 42.5315 43.2919 42.5315 43.8107 43.0503ZM81.1198 40.532C82.5933 40.532 83.7857 41.7245 83.7857 43.198C83.7857 44.6715 82.5933 45.8639 81.1198 45.8639C79.6463 45.8639 78.4538 44.6715 78.4538 43.198C78.4538 41.7245 79.6463 40.532 81.1198 40.532ZM93.4625 51.077C93.4625 48.1733 91.1064 45.8172 88.2026 45.8172C85.2989 45.8172 82.9428 48.1733 82.9428 51.077C82.9428 53.9808 85.2989 56.3369 88.2026 56.3369C91.1064 56.3369 93.4625 53.9808 93.4625 51.077Z" fill="#DBDFE4"/>
<path fill-rule="evenodd" clip-rule="evenodd" d="M83.7857 43.2016C83.7857 44.674 82.5921 45.8676 81.1198 45.8676C79.6474 45.8676 78.4538 44.674 78.4538 43.2016C78.4538 41.7292 79.6474 40.5356 81.1198 40.5356C82.5921 40.5356 83.7857 41.7292 83.7857 43.2016ZM88.2026 56.3368C91.1076 56.3368 93.4625 53.9819 93.4625 51.0769C93.4625 48.172 91.1076 45.8171 88.2026 45.8171C85.2977 45.8171 82.9428 48.172 82.9428 51.0769C82.9428 53.9819 85.2977 56.3368 88.2026 56.3368ZM89.3917 66.5396C80.7669 64.9004 64.7027 75.4778 70.3841 85.5472C80.2554 89.9317 89.9357 75.2617 89.3917 66.5396Z" fill="#F1F4F9"/>
</svg>
