<svg width="40" height="40" viewBox="0 0 40 40" fill="none" xmlns="http://www.w3.org/2000/svg">
<circle opacity="0.2" cx="20" cy="20" r="20" fill="#FFA031"/>
<path d="M24.5829 16.727C21.8927 16.727 19.166 15.7406 19.166 13.8635C19.166 11.9864 21.8927 11 24.5829 11C27.2732 11 29.9999 11.9864 29.9999 13.8635C29.9999 15.7406 27.2732 16.727 24.5829 16.727ZM24.5829 12.638C22.1484 12.638 20.8337 13.5108 20.8337 13.8635C20.8337 14.2222 22.1484 15.089 24.5829 15.089C27.0175 15.089 28.3322 14.2162 28.3322 13.8635C28.3322 13.5048 27.0175 12.638 24.5829 12.638Z" fill="#FFA031"/>
<path d="M24.5829 20.0028C21.8927 20.0028 19.166 19.0164 19.166 17.1393V13.8633H20.8337V17.1393C20.8337 17.4979 22.1484 18.3648 24.5829 18.3648C27.0175 18.3648 28.3322 17.492 28.3322 17.1393V13.8633H29.9999V17.1393C29.9999 19.0164 27.2732 20.0028 24.5829 20.0028Z" fill="#FFA031"/>
<path d="M24.5829 23.2728C21.8927 23.2728 19.166 22.2864 19.166 20.4093V17.1333H20.8337V20.4093C20.8337 20.768 22.1484 21.6348 24.5829 21.6348C27.0175 21.6348 28.3322 20.762 28.3322 20.4093V17.1333H29.9999V20.4093C29.9999 22.2924 27.2732 23.2728 24.5829 23.2728Z" fill="#FFA031"/>
<path d="M24.5829 26.5492C21.8927 26.5492 19.166 25.5628 19.166 23.6857V20.4097H20.8337V23.6857C20.8337 24.0443 22.1484 24.9112 24.5829 24.9112C27.0175 24.9112 28.3322 24.0384 28.3322 23.6857V20.4097H29.9999V23.6857C29.9999 25.5628 27.2732 26.5492 24.5829 26.5492Z" fill="#FFA031"/>
<path d="M15.4169 22.4541C12.7267 22.4541 10 21.4677 10 19.5906C10 17.7134 12.7267 16.7271 15.4169 16.7271C18.1071 16.7271 20.8338 17.7134 20.8338 19.5906C20.8338 21.4677 18.1071 22.4541 15.4169 22.4541ZM15.4169 18.3651C12.9823 18.3651 11.6677 19.2379 11.6677 19.5906C11.6677 19.9492 12.9823 20.8161 15.4169 20.8161C17.8515 20.8161 19.1661 19.9433 19.1661 19.5906C19.1661 19.2379 17.8515 18.3651 15.4169 18.3651Z" fill="#FFA031"/>
<path d="M15.4169 25.7298C12.7267 25.7298 10 24.7434 10 22.8663V19.5903H11.6677V22.8663C11.6677 23.225 12.9823 24.0918 15.4169 24.0918C17.8515 24.0918 19.1661 23.219 19.1661 22.8663V19.5903H20.8338V22.8663C20.8338 24.7434 18.1071 25.7298 15.4169 25.7298Z" fill="#FFA031"/>
<path d="M15.4169 28.9998C12.7267 28.9998 10 28.0135 10 26.1363V22.8604H11.6677V26.1363C11.6677 26.495 12.9823 27.3618 15.4169 27.3618C17.8515 27.3618 19.1661 26.489 19.1661 26.1363V22.8604H20.8338V26.1363C20.8338 28.0194 18.1071 28.9998 15.4169 28.9998Z" fill="#FFA031"/>
</svg>
