<svg width="24" height="24" viewBox="0 0 24 24" fill="none" xmlns="http://www.w3.org/2000/svg">
<circle cx="12" cy="12" r="12" fill="url(#paint0_linear)"/>
<path d="M14.625 5H9.375C6.95913 5 5 6.95913 5 9.375V14.625C5 17.0409 6.95913 19 9.375 19H14.625C17.0409 19 19 17.0409 19 14.625V9.375C19 6.95913 17.0409 5 14.625 5ZM17.6875 14.625C17.6875 16.3137 16.3137 17.6875 14.625 17.6875H9.375C7.68625 17.6875 6.3125 16.3137 6.3125 14.625V9.375C6.3125 7.68625 7.68625 6.3125 9.375 6.3125H14.625C16.3137 6.3125 17.6875 7.68625 17.6875 9.375V14.625Z" fill="white"/>
<path d="M12 8.5C10.0671 8.5 8.5 10.0671 8.5 12C8.5 13.9329 10.0671 15.5 12 15.5C13.9329 15.5 15.5 13.9329 15.5 12C15.5 10.0671 13.9329 8.5 12 8.5ZM12 14.1875C10.7942 14.1875 9.8125 13.2058 9.8125 12C9.8125 10.7934 10.7942 9.8125 12 9.8125C13.2058 9.8125 14.1875 10.7934 14.1875 12C14.1875 13.2058 13.2058 14.1875 12 14.1875Z" fill="white"/>
<path d="M15.7625 8.70388C16.0201 8.70388 16.2289 8.49508 16.2289 8.23751C16.2289 7.97994 16.0201 7.77113 15.7625 7.77113C15.5049 7.77113 15.2961 7.97994 15.2961 8.23751C15.2961 8.49508 15.5049 8.70388 15.7625 8.70388Z" fill="white"/>
<defs>
<linearGradient id="paint0_linear" x1="24" y1="22" x2="0" y2="0" gradientUnits="userSpaceOnUse">
<stop stop-color="#FF00B8"/>
<stop offset="1" stop-color="#FFC700"/>
</linearGradient>
</defs>
</svg>
