<svg width="16" height="16" viewBox="0 0 16 16" fill="none" xmlns="http://www.w3.org/2000/svg">
<g opacity="0.2">
<path d="M8.00024 8.50097C7.00253 8.50097 6.19287 7.68612 6.19287 6.68088C6.19287 5.67469 7.00253 4.86032 8.00024 4.86032C8.99794 4.86032 9.8076 5.67516 9.8076 6.68088C9.8076 7.68565 8.99794 8.50097 8.00024 8.50097ZM8.00024 2.6665C5.79087 2.6665 4 4.4701 4 6.69549C4 8.7974 5.81161 11.5087 7.02138 12.8287C7.47334 13.3212 7.99976 13.9853 7.99976 13.9853C7.99976 13.9853 8.5653 13.3175 9.05025 12.8104C10.2591 11.5454 12 9.00571 12 6.69549C12 4.4701 10.2091 2.6665 8.00024 2.6665Z" fill="black"/>
</g>
</svg>
