<svg width="24" height="24" viewBox="0 0 24 24" fill="none" xmlns="http://www.w3.org/2000/svg">
<path d="M20.5492 6.54502H16.6304C17.6019 5.05912 17.3978 3.20175 16.1691 2.38532C14.9322 1.56481 13.1279 2.10365 12.136 3.59363C12.087 3.66711 12.0421 3.74059 12.0012 3.81407C11.9604 3.74059 11.9155 3.66711 11.8665 3.59363C10.8746 2.10365 9.07027 1.56073 7.83338 2.38532C6.60465 3.20175 6.40055 5.05912 7.3721 6.54502H3.45324C2.65314 6.54502 2 7.19408 2 7.99826V20.5508C2 21.3469 2.65314 22 3.45324 22H20.5492C21.3493 22 22.0025 21.3469 22.0025 20.5468V7.99826C22.0025 7.19408 21.3493 6.54502 20.5492 6.54502ZM20.337 8.21053V13.4398H12.834V8.21053H20.337ZM13.4953 4.49579C13.9199 3.85489 14.4995 3.63037 14.8669 3.63037C15.022 3.63037 15.1527 3.66711 15.267 3.74059C15.52 3.90796 15.5854 4.22228 15.6058 4.39781C15.6507 4.80603 15.52 5.26731 15.2588 5.66736C14.8342 6.30417 14.2546 6.53277 13.8872 6.53277C13.7321 6.53277 13.6014 6.49603 13.4871 6.42256C13.0708 6.14089 12.9728 5.28364 13.4953 4.49579ZM8.39671 4.39781C8.41712 4.22636 8.48244 3.90796 8.73553 3.74059C8.84983 3.66711 8.97638 3.63037 9.13558 3.63037C9.50297 3.63037 10.0826 3.85489 10.5072 4.49579C11.0338 5.28364 10.9317 6.14497 10.5194 6.41847C10.4051 6.49195 10.2786 6.52869 10.1194 6.52869C9.75198 6.52869 9.17232 6.30417 8.74778 5.66328C8.48244 5.26731 8.35589 4.80603 8.39671 4.39781ZM11.1685 8.21053V13.4398H3.66551V8.21053H11.1685ZM3.66551 15.1053H11.1685V20.3345H3.66551V15.1053ZM12.834 20.3345V15.1053H20.3329V20.3345H12.834Z" fill="#A9B0B9"/>
</svg>
