<svg width="40" height="40" viewBox="0 0 40 40" fill="none" xmlns="http://www.w3.org/2000/svg">
<path fill-rule="evenodd" clip-rule="evenodd" d="M1.66699 19.9998C1.66699 9.89022 9.89071 1.6665 20.0003 1.6665C30.1099 1.6665 38.3337 9.89165 38.3337 19.9998C38.3337 30.108 30.1099 38.3332 20.0003 38.3332C9.89071 38.3332 1.66699 30.1095 1.66699 19.9998ZM4.50715 19.9998C4.50715 28.5431 11.4585 35.493 20.0003 35.493C28.5436 35.493 35.4935 28.5431 35.4935 19.9998C35.4935 11.4566 28.5422 4.50667 20.0003 4.50667C11.4585 4.50667 4.50715 11.4566 4.50715 19.9998ZM21.4202 18.4519H27.1005C27.8858 18.4519 28.5206 19.0881 28.5206 19.872C28.5206 20.6559 27.8858 21.2921 27.1005 21.2921H21.4202V26.9725C21.4202 27.7564 20.7854 28.3926 20 28.3926C19.2147 28.3926 18.5799 27.7564 18.5799 26.9725V21.2921H12.8996C12.1143 21.2921 11.4795 20.6559 11.4795 19.872C11.4795 19.0881 12.1143 18.4519 12.8996 18.4519H18.5799V12.7716C18.5799 11.9877 19.2147 11.3515 20 11.3515C20.7854 11.3515 21.4202 11.9877 21.4202 12.7716V18.4519Z" fill="#A9B0B9"/>
</svg>
