<svg width="24" height="24" viewBox="0 0 24 24" fill="none" xmlns="http://www.w3.org/2000/svg">
<path fill-rule="evenodd" clip-rule="evenodd" d="M1 12C1 5.93423 5.93423 1 12 1C18.0658 1 23 5.93509 23 12C23 18.0649 18.0658 23 12 23C5.93423 23 1 18.0658 1 12ZM2.7041 12C2.7041 17.126 6.8749 21.2959 12 21.2959C17.126 21.2959 21.2959 17.126 21.2959 12C21.2959 6.87404 17.1251 2.7041 12 2.7041C6.8749 2.7041 2.7041 6.87404 2.7041 12ZM12.8519 11.0713H16.2601C16.7313 11.0713 17.1122 11.453 17.1122 11.9233C17.1122 12.3937 16.7313 12.7754 16.2601 12.7754H12.8519V16.1836C12.8519 16.6539 12.4711 17.0357 11.9999 17.0357C11.5287 17.0357 11.1478 16.6539 11.1478 16.1836V12.7754H7.73959C7.2684 12.7754 6.88752 12.3937 6.88752 11.9233C6.88752 11.453 7.2684 11.0713 7.73959 11.0713H11.1478V7.66306C11.1478 7.19272 11.5287 6.81099 11.9999 6.81099C12.4711 6.81099 12.8519 7.19272 12.8519 7.66306V11.0713Z" fill="white"/>
</svg>
