<svg width="24" height="24" viewBox="0 0 24 24" fill="none" xmlns="http://www.w3.org/2000/svg">
<path fill-rule="evenodd" clip-rule="evenodd" d="M7.5959 16.5599C8.04897 16.5027 8.46122 16.8295 8.51836 17.2828L8.89796 20.3745C8.95102 20.8278 8.62857 21.2403 8.1755 21.2975L5.13055 21.6773C4.59992 21.7182 4.25706 21.3751 4.204 20.9544C4.15094 20.497 4.47339 20.0845 4.92646 20.0273L5.93872 19.9007C2.56723 17.3441 1.17945 12.9618 2.4856 8.90626C3.79991 4.80988 7.67345 1.99592 11.947 2C12.5021 2 12.8286 2.39208 12.8205 2.8495C12.8082 3.30692 12.4735 3.65816 11.947 3.65816C8.38367 3.66633 5.15912 6.00653 4.06114 9.41677C2.96316 12.827 4.15094 16.5109 7.01221 18.6346L6.87344 17.487C6.81629 17.0296 7.14283 16.6171 7.5959 16.5599ZM19.0735 3.97677L18.0612 4.10338C21.4327 6.66004 22.8205 11.0423 21.5144 15.0897C20.2 19.1861 16.3265 22 12.0489 22C11.4938 22 11.1672 21.6079 11.1754 21.1505C11.1876 20.6931 11.5223 20.3419 12.0489 20.3419C15.6122 20.3337 18.8368 17.9935 19.9347 14.5832C21.0327 11.173 19.8449 7.48912 16.9837 5.36538L17.1224 6.51301C17.1796 6.97044 16.853 7.38293 16.4 7.44011C15.9469 7.49729 15.5347 7.17056 15.4775 6.71722L15.102 3.62962C15.0489 3.17628 15.3714 2.76379 15.8245 2.70661L18.8694 2.32679C19.4 2.28595 19.7429 2.62901 19.796 3.04968C19.849 3.5071 19.5266 3.9196 19.0735 3.97677Z" fill="#A9B0B9"/>
</svg>
