<svg width="24" height="24" viewBox="0 0 24 24" fill="none" xmlns="http://www.w3.org/2000/svg">
<path d="M21.2188 2H2.78125C2.34977 2 2 2.34977 2 2.78125V18.0938C2 18.5252 2.34977 18.875 2.78125 18.875H8.55141L11.4476 21.7712C11.7527 22.0763 12.2473 22.0763 12.5525 21.7712L15.4486 18.875H21.2188C21.6502 18.875 22 18.5252 22 18.0938V2.78125C22 2.34977 21.6502 2 21.2188 2ZM20.4375 17.3125H15.125C14.9178 17.3125 14.7191 17.3948 14.5725 17.5413L12 20.1139L9.42746 17.5413C9.28094 17.3948 9.08223 17.3125 8.875 17.3125H3.5625V3.5625H20.4375V17.3125ZM9.02481 11.8331L8.59004 14.368C8.48078 15.0049 9.15125 15.4924 9.7236 15.1915L12 13.9947L14.2764 15.1915C14.8463 15.4912 15.5197 15.0078 15.41 14.368L14.9752 11.8331L16.8169 10.0379C17.2797 9.58684 17.0238 8.79836 16.3839 8.70535L13.8388 8.33551L12.7005 6.02922C12.4145 5.44965 11.5855 5.44942 11.2994 6.02922L10.1612 8.33551L7.61606 8.70535C6.97645 8.79828 6.72 9.58656 7.18309 10.0379L9.02481 11.8331ZM10.7923 9.8227C11.0468 9.78574 11.2668 9.6259 11.3806 9.39535L12 8.14024L12.6194 9.39531C12.7332 9.6259 12.9532 9.78571 13.2077 9.82266L14.5927 10.0239L13.5905 11.0009C13.4063 11.1804 13.3223 11.4389 13.3658 11.6924L13.6024 13.0718L12.3636 12.4205C12.136 12.3009 11.8641 12.3008 11.6365 12.4205L10.3977 13.0718L10.6343 11.6924C10.6777 11.4389 10.5937 11.1804 10.4096 11.0009L9.40735 10.0239L10.7923 9.8227Z" fill="#A9B0B9"/>
</svg>
