<svg width="24" height="24" viewBox="0 0 24 24" fill="none" xmlns="http://www.w3.org/2000/svg">
<path fill-rule="evenodd" clip-rule="evenodd" d="M20.4178 12.8574L22.6606 14.5625C23.0083 14.8269 23.1023 15.3072 22.8797 15.6815L20.7078 19.3329C20.4914 19.6966 20.0407 19.8505 19.6444 19.6957L16.9834 18.6559C16.4975 19.0009 15.9773 19.2933 15.4286 19.5298L15.0291 22.2639C14.9673 22.6865 14.6023 23 14.1719 23H9.82806C9.39771 23 9.03264 22.6865 8.97088 22.2639L8.57142 19.5298C8.02267 19.2933 7.50247 19.0008 7.01657 18.6558L4.35553 19.6956C3.95931 19.8504 3.50857 19.6966 3.29221 19.3328L1.12033 15.6814C0.897641 15.3071 0.991703 14.8268 1.33941 14.5625L3.5822 12.8574C3.52299 12.3036 3.51914 11.7323 3.5822 11.1426L1.33937 9.43752C0.991703 9.17317 0.897641 8.69287 1.12028 8.31857L3.29226 4.66721C3.50862 4.30344 3.95931 4.14957 4.35557 4.30443L7.01657 5.34427C7.50256 4.99919 8.02272 4.70683 8.57146 4.47024L8.97092 1.73614C9.03264 1.3135 9.39771 1 9.82806 1H14.1719C14.6023 1 14.9673 1.3135 15.0291 1.7361L15.4286 4.4702C15.9773 4.70674 16.4975 4.99914 16.9834 5.34423L19.6444 4.30438C20.0406 4.14957 20.4914 4.30339 20.7078 4.66717L22.8797 8.31857C23.1024 8.69287 23.0083 9.17317 22.6606 9.43752L20.4178 11.1426C20.477 11.6964 20.4809 12.2677 20.4178 12.8574ZM17.1643 16.8792L19.5916 17.8277L20.9977 15.4636L18.964 13.9174C18.7084 13.7231 18.5826 13.4041 18.6373 13.0892C18.7606 12.3797 18.7648 11.6444 18.6373 10.9107C18.5826 10.5959 18.7084 10.2769 18.964 10.0826L20.9977 8.53638L19.5916 6.17228L17.1643 7.12073C16.8736 7.23434 16.5438 7.1838 16.3012 6.98851C15.7155 6.51706 15.0582 6.14821 14.3475 5.89221C14.0475 5.78414 13.8317 5.52113 13.7859 5.20772L13.4223 2.71875H10.5777L10.2141 5.20772C10.1683 5.52113 9.95252 5.78414 9.65249 5.89221C8.94178 6.14821 8.28442 6.51706 7.69874 6.98851C7.45613 7.18376 7.12644 7.23438 6.83563 7.12073L4.40841 6.17228L3.00219 8.53638L5.03588 10.0826C5.29148 10.2769 5.41737 10.5959 5.36263 10.9107C5.23934 11.6202 5.23514 12.3555 5.36263 13.0892C5.41737 13.4041 5.29148 13.723 5.03588 13.9174L3.00219 15.4636L4.40841 17.8277L6.83563 16.8792C7.12631 16.7657 7.45613 16.8162 7.69874 17.0114C8.28438 17.4829 8.94173 17.8517 9.65249 18.1078C9.95252 18.2159 10.1683 18.4789 10.2141 18.7923L10.5777 21.2812H13.4223L13.7859 18.7923C13.8317 18.4789 14.0475 18.2159 14.3475 18.1078C15.0582 17.8518 15.7156 17.4829 16.3012 17.0114C16.5438 16.8162 16.8735 16.7657 17.1643 16.8792ZM8.53537 12C8.53537 10.1046 10.0895 8.5625 11.9999 8.5625C13.9103 8.5625 15.4645 10.1046 15.4645 12C15.4645 13.8954 13.9103 15.4375 11.9999 15.4375C10.0896 15.4375 8.53537 13.8954 8.53537 12ZM10.2677 12C10.2677 12.9477 11.0448 13.7188 11.9999 13.7188C12.9551 13.7188 13.7322 12.9477 13.7322 12C13.7322 11.0523 12.9551 10.2812 11.9999 10.2812C11.0448 10.2812 10.2677 11.0523 10.2677 12Z" fill="#A9B0B9"/>
</svg>
