<svg width="24" height="24" viewBox="0 0 24 24" fill="none" xmlns="http://www.w3.org/2000/svg">
<path fill-rule="evenodd" clip-rule="evenodd" d="M14.2949 1.62192L19.6772 4.77501C21.1099 5.61432 22 7.18491 22 8.87384V15.1261C22 16.8151 21.1099 18.3856 19.6772 19.225L14.2949 22.378C12.8793 23.2073 11.1207 23.2073 9.70517 22.378L4.32282 19.225C2.89004 18.3856 2 16.815 2 15.1261V8.87384C2 7.18495 2.89004 5.61436 4.32277 4.77501L9.70513 1.62192C11.1207 0.792671 12.8794 0.792714 14.2949 1.62192ZM18.8419 17.7331C19.7532 17.1993 20.3193 16.2003 20.3193 15.1261V8.87384C20.3193 7.79962 19.7532 6.80069 18.842 6.26684L13.4597 3.11375C12.5593 2.58627 11.4407 2.58636 10.5404 3.11375L5.15807 6.26684C4.24676 6.80069 3.68067 7.79962 3.68067 8.87384V15.1261C3.68067 16.2003 4.24676 17.1993 5.15803 17.7331L10.5404 20.8862C11.4407 21.4137 12.5593 21.4137 13.4596 20.8862L18.8419 17.7331ZM13.6907 12L16.7454 13.7899C17.1482 14.0259 17.2876 14.5511 17.0569 14.963C16.8263 15.375 16.3127 15.5176 15.9101 15.2816L12.8403 13.483V17.0715C12.8403 17.5463 12.4641 17.9311 12 17.9311C11.5359 17.9311 11.1597 17.5463 11.1597 17.0715V13.483L8.08996 15.2816C7.68719 15.5176 7.17379 15.3749 6.94311 14.963C6.71244 14.5511 6.8519 14.0259 7.25463 13.7899L10.3093 12L7.25458 10.2102C6.8519 9.97418 6.7124 9.44897 6.94307 9.03703C7.17374 8.62509 7.68719 8.48239 8.08992 8.71842L11.1597 10.517V6.92856C11.1597 6.45379 11.5359 6.06897 12 6.06897C12.4641 6.06897 12.8403 6.45379 12.8403 6.92856V10.517L15.9101 8.71842C16.3127 8.48243 16.8263 8.62509 17.0569 9.03703C17.2876 9.44897 17.1481 9.97422 16.7454 10.2102L13.6907 12Z" fill="#0094FF"/>
</svg>
