<svg width="24" height="24" viewBox="0 0 24 24" fill="none" xmlns="http://www.w3.org/2000/svg">
<path d="M21.9586 9.55244C21.8595 9.2324 21.5972 9.00056 21.2802 8.95206L15.3867 8.04929L12.7488 2.45096C12.4647 1.84968 11.5257 1.84968 11.2416 2.45096L8.60373 8.05011L2.7194 8.95201C2.40249 9.00052 2.13937 9.23326 2.04101 9.5524C1.94265 9.87154 2.02421 10.2216 2.2537 10.4561L6.51061 14.8139L5.50944 20.9703C5.45479 21.3009 5.58424 21.635 5.84401 21.8325C5.99026 21.9436 6.16346 22 6.33745 22C6.47112 22 6.60561 21.9665 6.73084 21.8977L11.9965 18.9928L17.2713 21.8986C17.5546 22.0538 17.8984 22.0299 18.1565 21.8307C18.4154 21.6333 18.544 21.2991 18.4902 20.9676L17.4815 14.813L21.7459 10.4552C21.9754 10.2216 22.0578 9.87244 21.9586 9.55244ZM15.9894 13.875C15.7918 14.0778 15.7011 14.3696 15.7481 14.6561L16.5434 19.5077L12.3857 17.2164C12.2629 17.1494 12.1293 17.1159 11.9948 17.1159C11.8594 17.1159 11.7249 17.1494 11.6031 17.2173L7.45209 19.5068L8.24143 14.6544C8.2885 14.3696 8.19772 14.077 8.00018 13.8751L4.64358 10.4394L9.28295 9.72704C9.55615 9.68648 9.79236 9.50578 9.9151 9.24657L11.9948 4.8332L14.0745 9.24571C14.1972 9.50492 14.4334 9.68562 14.7066 9.72708L19.3519 10.4394L15.9894 13.875Z" fill="#DBDFE4"/>
<path fill-rule="evenodd" clip-rule="evenodd" d="M12 2.00001C11.6926 1.99843 11.3844 2.14875 11.2416 2.45096L8.60373 8.05011L2.7194 8.95201C2.40249 9.00052 2.13937 9.23326 2.04101 9.5524C1.94265 9.87154 2.02421 10.2216 2.2537 10.4561L6.51061 14.8139L5.50944 20.9703C5.45479 21.3009 5.58424 21.635 5.84401 21.8325C5.99026 21.9436 6.16346 22 6.33745 22C6.47112 22 6.60561 21.9665 6.73084 21.8977L11.9965 18.9928L12 18.9948V17.1159C11.9983 17.1159 11.9965 17.1159 11.9948 17.1159C11.8594 17.1159 11.7249 17.1494 11.6031 17.2173L7.45209 19.5068L8.24143 14.6544C8.2885 14.3696 8.19772 14.077 8.00018 13.8751L4.64358 10.4394L9.28295 9.72704C9.55615 9.68648 9.79236 9.50578 9.9151 9.24657L11.9948 4.8332L12 4.84427V2.00001Z" fill="#FFA031"/>
</svg>
