<svg width="48" height="48" viewBox="0 0 48 48" fill="none" xmlns="http://www.w3.org/2000/svg">
<path fill-rule="evenodd" clip-rule="evenodd" d="M35.236 38.0645C28.1686 43.7248 17.8235 43.2793 11.2721 36.7279C4.72067 30.1765 4.27515 19.8314 9.93552 12.764L35.236 38.0645ZM38.0644 35.2361L12.7639 9.93557C19.8313 4.27515 30.1765 4.72065 36.7279 11.2721C43.2794 17.8235 43.7249 28.1687 38.0644 35.2361ZM39.5563 39.5563C30.9648 48.1479 17.0352 48.1479 8.44365 39.5563C-0.147884 30.9648 -0.147884 17.0352 8.44365 8.44365C17.0352 -0.147884 30.9648 -0.147884 39.5563 8.44365C48.1479 17.0352 48.1479 30.9648 39.5563 39.5563Z" fill="#FC5733"/>
</svg>
