<svg width="24" height="24" viewBox="0 0 24 24" fill="none" xmlns="http://www.w3.org/2000/svg">
<path fill-rule="evenodd" clip-rule="evenodd" d="M19.0909 1H4.90909C3.85636 1 3 1.8635 3 2.925V21.075C3 22.1362 3.85636 23 4.90909 23H19.0909C20.1434 23 21 22.1362 21 21.075V2.925C21 1.8635 20.1434 1 19.0909 1ZM19.3636 21.075C19.3636 21.2241 19.2387 21.35 19.0909 21.35H4.90909C4.76126 21.35 4.63636 21.2241 4.63636 21.075V2.925C4.63636 2.77594 4.76126 2.65 4.90909 2.65H7.90928V5.40001C7.90928 5.8557 8.27555 6.22501 8.72747 6.22501H15.2729C15.7248 6.22501 16.0911 5.8557 16.0911 5.40001V2.65H19.0909C19.2387 2.65 19.3636 2.77594 19.3636 2.925V21.075ZM14.4547 2.65H9.54565V4.57501H14.4547V2.65ZM14.4545 10.35H9.27273C8.82081 10.35 8.45454 10.7194 8.45454 11.175C8.45454 11.6307 8.82081 12 9.27273 12H14.4545C14.9065 12 15.2727 11.6307 15.2727 11.175C15.2727 10.7194 14.9065 10.35 14.4545 10.35ZM7.6367 13.65H16.364C16.8159 13.65 17.1822 14.0193 17.1822 14.475C17.1822 14.9306 16.8159 15.3 16.364 15.3H7.6367C7.18478 15.3 6.81852 14.9306 6.81852 14.475C6.81852 14.0193 7.18478 13.65 7.6367 13.65ZM16.364 16.95H7.6367C7.18478 16.95 6.81852 17.3193 6.81852 17.775C6.81852 18.2307 7.18478 18.6 7.6367 18.6H16.364C16.8159 18.6 17.1822 18.2307 17.1822 17.775C17.1822 17.3193 16.8159 16.95 16.364 16.95Z" fill="#A9B0B9"/>
</svg>
