<svg width="24" height="24" viewBox="0 0 24 24" fill="none" xmlns="http://www.w3.org/2000/svg">
<path fill-rule="evenodd" clip-rule="evenodd" d="M12 21C16.9706 21 21 16.9706 21 12C21 7.02944 16.9706 3 12 3C7.02944 3 3 7.02944 3 12C3 16.9706 7.02944 21 12 21ZM12 23C18.0751 23 23 18.0751 23 12C23 5.92487 18.0751 1 12 1C5.92487 1 1 5.92487 1 12C1 18.0751 5.92487 23 12 23ZM12.9524 15.0521V12.7794C14.7939 12.336 16.0698 10.6732 15.997 8.7928C15.918 6.74526 14.2301 5.08039 12.1544 5.00301C11.0454 4.96117 9.99814 5.35661 9.20648 6.11545C8.42839 6.86134 8 7.86215 8 8.93368C8 9.45722 8.42634 9.88154 8.95238 9.88154C9.47843 9.88154 9.90477 9.45722 9.90477 8.93368C9.90477 8.38199 10.1259 7.86604 10.5277 7.48097C10.9433 7.08275 11.4952 6.87559 12.083 6.89725C13.1695 6.93798 14.0527 7.80254 14.0938 8.86574C14.1319 9.85655 13.4448 10.732 12.4595 10.9471C11.6282 11.1288 11.0476 11.8437 11.0476 12.6861V15.0521C11.0476 15.5757 11.474 16 12 16C12.5261 16 12.9524 15.5757 12.9524 15.0521ZM12 19C12.5523 19 13 18.5523 13 18C13 17.4477 12.5523 17 12 17C11.4477 17 11 17.4477 11 18C11 18.5523 11.4477 19 12 19Z" fill="#A9B0B9"/>
</svg>
