<svg width="24" height="24" viewBox="0 0 24 24" fill="none" xmlns="http://www.w3.org/2000/svg">
<path fill-rule="evenodd" clip-rule="evenodd" d="M9.31687 5.82089C9.31687 4.26538 10.5805 3 12.1339 3C13.6873 3 14.951 4.26538 14.951 5.82089C14.951 6.44542 14.7473 7.02317 14.4029 7.49104C18.5337 8.44827 21.657 11.8153 21.9568 15.8955H22.1951C22.6396 15.8955 23 16.2563 23 16.7014C23 17.1466 22.6397 17.5074 22.1951 17.5074H1.80489C1.36034 17.5074 1 17.1466 1 16.7014C1 16.2563 1.36034 15.8955 1.80489 15.8955H2.04315C2.34857 11.7394 5.58344 8.32337 9.82836 7.44019C9.50619 6.9816 9.31687 6.42298 9.31687 5.82089ZM10.9266 5.82089C10.9266 6.48747 11.4683 7.02986 12.1339 7.02986C12.7996 7.02986 13.3413 6.48747 13.3413 5.82089C13.3413 5.15432 12.7996 4.61192 12.1339 4.61192C11.4683 4.61192 10.9266 5.15436 10.9266 5.82089ZM20.3417 15.8955C19.9849 11.9445 16.38 8.82986 12 8.82986C7.62002 8.82986 4.01505 11.9445 3.65826 15.8955H20.3417ZM22.1951 19.3881H1.80489C1.36034 19.3881 1 19.7489 1 20.194C1 20.6392 1.36034 21 1.80489 21H22.1951C22.6397 21 23 20.6392 23 20.194C23 19.7489 22.6396 19.3881 22.1951 19.3881Z" fill="#A9B0B9"/>
</svg>
