<svg width="24" height="24" viewBox="0 0 24 24" fill="none" xmlns="http://www.w3.org/2000/svg">
<path fill-rule="evenodd" clip-rule="evenodd" d="M12 1C8.92796 1 6.42861 3.56599 6.42861 6.72C6.42861 9.87401 8.92796 12.44 12 12.44C15.0721 12.44 17.5715 9.87401 17.5715 6.72C17.5715 3.56599 15.0721 1 12 1ZM8.42861 6.72C8.42861 4.62062 10.0818 3 12 3C13.9183 3 15.5715 4.62062 15.5715 6.72C15.5715 8.81938 13.9183 10.44 12 10.44C10.0818 10.44 8.42861 8.81938 8.42861 6.72Z" fill="#858C97"/>
<path fill-rule="evenodd" clip-rule="evenodd" d="M18.7186 16.6157C17.2402 15.0579 15.2804 14.2 13.2 14.2H10.8C8.71968 14.2 6.75976 15.0579 5.28136 16.6157C3.8102 18.1658 3 20.212 3 22.3774C3 22.7212 3.26864 23 3.6 23H20.4C20.7314 23 21 22.7212 21 22.3774C21 20.212 20.1898 18.1658 18.7186 16.6157ZM5.14582 21C5.38977 19.8691 5.93377 18.8336 6.73205 17.9924C7.84657 16.8181 9.28791 16.2 10.8 16.2H13.2C14.7121 16.2 16.1534 16.8181 17.268 17.9924C18.0662 18.8336 18.6102 19.8691 18.8542 21H5.14582Z" fill="#858C97"/>
</svg>
