<svg width="20" height="20" viewBox="0 0 20 20" fill="none" xmlns="http://www.w3.org/2000/svg">
<path d="M10.0025 0H9.9975C4.48375 0 0 4.485 0 10C0 12.1875 0.705 14.215 1.90375 15.8612L0.6575 19.5763L4.50125 18.3475C6.0825 19.395 7.96875 20 10.0025 20C15.5162 20 20 15.5138 20 10C20 4.48625 15.5162 0 10.0025 0Z" fill="#4CAF50"/>
<path d="M15.8217 14.1212C15.5804 14.8025 14.6229 15.3675 13.8592 15.5325C13.3367 15.6437 12.6542 15.7325 10.3567 14.78C7.41793 13.5625 5.52543 10.5762 5.37793 10.3825C5.23668 10.1887 4.19043 8.80123 4.19043 7.36623C4.19043 5.93123 4.91918 5.23248 5.21293 4.93248C5.45418 4.68623 5.85293 4.57373 6.23543 4.57373C6.35918 4.57373 6.47043 4.57998 6.57043 4.58498C6.86418 4.59748 7.01168 4.61498 7.20543 5.07873C7.44668 5.65998 8.03418 7.09498 8.10418 7.24248C8.17543 7.38998 8.24668 7.58998 8.14668 7.78373C8.05293 7.98373 7.97043 8.07248 7.82293 8.24248C7.67543 8.41248 7.53543 8.54248 7.38793 8.72498C7.25293 8.88373 7.10043 9.05373 7.27043 9.34748C7.44043 9.63498 8.02793 10.5937 8.89293 11.3637C10.0092 12.3575 10.9142 12.675 11.2379 12.81C11.4792 12.91 11.7667 12.8862 11.9429 12.6987C12.1667 12.4575 12.4429 12.0575 12.7242 11.6637C12.9242 11.3812 13.1767 11.3462 13.4417 11.4462C13.7117 11.54 15.1404 12.2462 15.4342 12.3925C15.7279 12.54 15.9217 12.61 15.9929 12.7337C16.0629 12.8575 16.0629 13.4387 15.8217 14.1212Z" fill="#FAFAFA"/>
</svg>
