<svg width="125" height="43" viewBox="0 0 125 43" fill="none" xmlns="http://www.w3.org/2000/svg">
<g clip-path="url(#clip0)">
<path fill-rule="evenodd" clip-rule="evenodd" d="M1.87937 8.39469C1.8421 8.35754 1.80484 8.32039 1.76758 8.24609L1.87937 8.39469Z" fill="#00FF00"/>
<path fill-rule="evenodd" clip-rule="evenodd" d="M8.251 31.9072C7.28232 31.87 5.27044 31.7957 4.78603 31.7586C3.92914 31.7214 3.25841 31.6843 1.91726 31.5728C1.84273 31.5728 1.61916 31.5357 1.50737 31.3871C1.32106 31.2013 1.39558 30.9043 1.39558 30.7928C1.47011 30.31 1.47011 29.2328 1.39558 27.5984C1.39558 27.4869 1.43284 27.2642 1.58189 27.0783C1.80547 26.7441 2.10357 26.5955 2.21521 26.5582C2.43878 26.4467 2.6251 26.4467 2.84852 26.4096C2.84852 26.4096 3.03484 26.3724 3.22115 26.4096C4.30161 26.4467 5.86649 26.8182 5.86649 26.8182C6.35076 26.9297 7.09601 27.1154 8.06469 27.3383C8.17647 27.3755 8.43731 27.4869 8.62348 27.747C8.95869 28.1556 8.92157 28.6384 8.92157 28.7499C8.92157 29.6042 8.92157 30.4956 8.92157 31.3499C8.92157 31.3871 8.88431 31.6471 8.66074 31.7956C8.51184 31.907 8.32552 31.907 8.251 31.907V31.9072Z" fill="#53D500"/>
<path fill-rule="evenodd" clip-rule="evenodd" d="M7.20675 26.4468C5.60475 26.1126 3.96535 25.7781 2.36336 25.4439C1.84168 25.4439 1.39468 24.9982 1.39468 24.4781L1.39453 17.5322C1.39453 17.0121 1.84153 16.5664 2.36321 16.5664H7.98911C8.51079 16.5664 8.95779 17.0121 8.95779 17.5322C8.95779 20.3551 8.92052 23.141 8.92052 25.964C8.92052 26.0754 8.92053 26.1497 8.88326 26.1869C8.73406 26.5211 8.06363 26.6325 7.20675 26.4468Z" fill="black"/>
<path fill-rule="evenodd" clip-rule="evenodd" d="M10.7467 0.297444H9.14455V6.46343C9.14455 6.46343 9.14455 6.50058 9.14455 6.53773V7.24343C9.14455 7.31773 9.10728 7.35488 9.10728 7.42918C8.92097 7.87483 8.47397 8.32063 7.87777 8.35778C7.02088 8.39493 6.53661 7.54063 6.46194 7.42918C6.35015 7.20628 6.27563 6.98353 6.23837 6.83493L6.23851 0.223145H4.45006V7.13198C4.4128 7.20628 4.37554 7.31773 4.33827 7.39203C4.26375 7.50348 3.77948 8.39493 2.92245 8.32063C2.32639 8.28348 1.91651 7.83783 1.73034 7.42918V0.223145H0.0165611V11.8121C0.0165611 11.9979 -0.0207014 12.2208 0.0165611 12.4435C0.0165611 12.5178 0.0165611 12.555 0.0538237 12.6293C0.426449 14.4123 2.99712 15.898 5.41889 15.8237C7.84051 15.898 10.4113 14.4122 10.7839 12.6293C10.7839 12.5921 10.7839 12.555 10.7839 12.555L10.8212 12.5553V0.297592H10.7468L10.7467 0.297444Z" fill="black"/>
<path fill-rule="evenodd" clip-rule="evenodd" d="M7.84037 37.7761H2.36352C1.80473 37.7761 1.32031 37.3305 1.32031 36.7361V34.0246C1.32031 33.4675 1.76731 32.9845 2.36352 32.9845L7.84037 32.9844C8.39916 32.9844 8.88357 33.43 8.88357 34.0244V36.7359C8.88357 37.3303 8.3993 37.776 7.84037 37.776V37.7761Z" fill="#42A900"/>
<path fill-rule="evenodd" clip-rule="evenodd" d="M7.98865 42.8648C6.2002 42.8648 4.44931 42.8648 2.66085 42.8648C2.54907 42.8648 2.25097 42.8648 1.91575 42.6419C1.54313 42.3447 1.50586 41.9732 1.46875 41.8991C1.46875 41.1562 1.46875 40.4132 1.46875 39.6704C1.46875 39.2989 1.76685 38.9647 2.17659 38.9647C4.11394 38.8904 6.0513 38.7789 8.02592 38.7046C8.06318 38.7046 8.32402 38.6303 8.58471 38.8161C8.77102 38.9275 8.80828 39.1133 8.84554 39.1876C8.84554 40.6734 8.84554 41.7876 8.80828 42.2706C8.80828 42.3449 8.80828 42.5306 8.65923 42.7162C8.39839 42.939 7.98851 42.8648 7.98851 42.8648H7.98865Z" fill="#53D500"/>
<path fill-rule="evenodd" clip-rule="evenodd" d="M19.1294 26.8555C17.5274 26.7069 15.9252 26.5213 14.286 26.3727C14.1742 26.3355 13.9879 26.2612 13.839 26.0755C13.4291 25.6299 13.6154 24.9983 13.6527 24.9612C13.6154 17.3466 13.5781 9.76908 13.5781 2.15454C13.5781 0.966044 14.5468 0.000148007 15.7391 0.000148007L18.347 0C19.5391 0 20.5079 0.965748 20.5079 2.1544C20.5079 10.1033 20.5079 18.0893 20.5079 26.0381C20.5079 26.0752 20.4707 26.5209 20.0609 26.7809C19.6139 27.0411 19.1668 26.8925 19.1295 26.8554L19.1294 26.8555Z" fill="black"/>
<path fill-rule="evenodd" clip-rule="evenodd" d="M19.3528 32.6869H15.6644C15.0684 32.6869 14.584 32.2041 14.584 31.6097C14.6212 30.6068 14.6585 29.6411 14.6958 28.6382C14.6958 28.601 14.584 28.1925 14.8821 27.8953C15.1429 27.5981 15.5528 27.6353 15.5899 27.6353C16.8567 27.7096 18.1235 27.7839 19.353 27.8953C19.949 27.8953 20.4335 28.3781 20.4335 28.9725V31.6099C20.4707 32.2041 19.9865 32.6869 19.353 32.6869H19.3528Z" fill="#42A900"/>
<path fill-rule="evenodd" clip-rule="evenodd" d="M20.2099 37.1818C20.0608 37.3304 19.8747 37.3675 19.8 37.3675C19.2412 37.479 17.6018 37.739 15.3665 38.0732C15.2547 38.0732 14.9566 38.0732 14.7705 37.8503C14.5841 37.6646 14.5469 37.4417 14.5469 37.2932C14.5841 36.3275 14.6214 35.5847 14.6214 35.0646C14.6214 34.4703 14.6214 34.1731 14.8077 33.8761C15.1803 33.356 15.9627 33.356 16.2981 33.356C17.4531 33.3931 18.6453 33.3931 19.8003 33.4303C19.8748 33.4303 19.9866 33.4674 20.1355 33.5789C20.2846 33.6903 20.3218 33.8389 20.3591 33.9131C20.3964 34.6188 20.4336 35.3246 20.4709 36.0303C20.508 36.402 20.508 36.9219 20.2099 37.1819V37.1818Z" fill="#53D500"/>
<path fill-rule="evenodd" clip-rule="evenodd" d="M19.4646 42.6046C19.3901 42.6789 19.2783 42.7532 19.1294 42.8275C18.6824 43.0875 18.3843 42.9761 17.3784 42.9761C16.447 42.9761 16.1489 43.0504 15.739 42.8275C15.5899 42.7532 15.4781 42.6417 15.4038 42.5674C15.1429 42.3445 14.8077 42.0103 14.6959 41.4902C14.6214 41.2302 14.6587 41.156 14.6587 40.4502C14.6214 39.4473 14.5469 39.2617 14.6587 39.0758C14.9195 38.6671 15.5528 38.6301 15.9254 38.593C17.1549 38.5187 18.4961 38.4072 20.0237 38.2588C20.0982 38.2588 20.21 38.2588 20.2845 38.3331C20.2845 38.3331 20.3591 38.4074 20.3963 38.5188C20.4709 38.7046 20.4336 39.7446 20.3591 41.1189C20.3591 41.156 20.3591 41.156 20.3591 41.1932C20.3218 41.3789 20.2473 41.6388 20.0982 41.8989C19.9118 42.2701 19.6511 42.493 19.4646 42.6044V42.6046Z" fill="#42A900"/>
<path fill-rule="evenodd" clip-rule="evenodd" d="M51.128 28.6437C51.128 29.6761 50.9624 30.6259 50.7138 31.493C50.4239 32.3602 50.0099 33.1035 49.5127 33.7641C49.0158 34.4248 48.3945 34.9616 47.6902 35.4573C46.9863 35.9115 46.1993 36.3244 45.3295 36.6134C44.4595 36.9026 43.5484 37.1502 42.5958 37.2741C41.6433 37.4392 40.5663 37.4805 39.3651 37.4805L31.4957 37.481C30.9987 37.481 30.5844 37.3158 30.2117 37.0266C29.8805 36.7375 29.7148 36.2422 29.7148 35.5813V9.85509C29.7148 9.19439 29.8805 8.69901 30.2117 8.4098C30.5431 8.12074 30.9987 7.95557 31.4957 7.95557H38.9511C40.7735 7.95557 42.306 8.12074 43.5486 8.4098C44.7912 8.69901 45.8681 9.19439 46.7379 9.77251C47.6077 10.3919 48.2704 11.1765 48.726 12.1263C49.1818 13.0759 49.4301 14.191 49.4301 15.4709C49.4301 16.1729 49.3472 16.8749 49.1401 17.4943C48.9745 18.1138 48.6844 18.6919 48.3531 19.2287C48.0219 19.7654 47.5663 20.2196 47.0691 20.5914C46.5722 21.0043 45.9922 21.2934 45.3296 21.5412C46.158 21.7063 46.945 21.9541 47.6491 22.3258C48.3531 22.6974 48.9745 23.1929 49.513 23.8122C50.0514 24.4316 50.4656 25.1336 50.7556 25.9182C51.0042 26.7442 51.1285 27.6525 51.1285 28.6436L51.128 28.6437ZM42.6371 16.586C42.6371 16.3796 42.6785 15.8014 42.5542 15.2646C42.5542 15.182 42.4298 14.7279 42.1815 14.3561L42.14 14.3149C42.0572 14.2323 41.8915 13.9846 41.6016 13.8195C41.5602 13.7782 41.5188 13.7782 41.4773 13.7369C41.4359 13.6956 41.1873 13.6129 40.856 13.489C40.6489 13.4477 40.359 13.3651 40.0277 13.3651C38.8679 13.3651 37.7497 13.3651 36.5899 13.4064C36.5899 15.3885 36.5899 17.3705 36.5899 19.3527C38.5364 19.394 40.0277 19.394 40.649 19.3527C40.8146 19.3527 41.0631 19.3114 41.3529 19.1463C41.4773 19.105 41.7257 18.9398 41.9742 18.5681C42.5541 17.9076 42.5954 17.0819 42.6369 16.5862L42.6371 16.586ZM44.0453 29.1807C44.211 28.4374 44.1283 27.8593 44.0868 27.6941C44.0453 27.4051 43.9623 27.0334 43.714 26.5793C43.5069 26.249 43.2584 26.0425 43.0927 25.8775C42.7613 25.5883 42.43 25.4231 42.0572 25.2581C41.7671 25.134 41.5188 25.0102 41.3531 24.9689C39.7791 24.9689 38.2054 24.9689 36.6313 24.9689C36.6313 27.1163 36.6313 29.2222 36.6313 31.3694C38.288 31.3694 39.9034 31.3694 41.56 31.3694C41.8914 31.3282 42.1813 31.2454 42.347 31.163C42.4714 31.1217 42.7198 30.9978 43.0097 30.7913C43.1754 30.6673 43.3411 30.5021 43.5482 30.2545C43.8797 29.8826 43.9623 29.4696 44.0452 29.1806L44.0453 29.1807Z" fill="#53D500"/>
<path fill-rule="evenodd" clip-rule="evenodd" d="M74.281 26.0835C74.3224 26.2076 74.4467 26.9922 73.9497 27.7354C73.494 28.3962 72.7901 28.6026 72.6244 28.6026C68.731 28.6026 64.8791 28.6026 60.9857 28.6439C60.9857 29.0156 61.0271 29.635 61.2756 30.2957C61.4 30.626 61.6484 31.2867 62.2697 31.8649C63.1395 32.6494 64.2578 32.732 64.962 32.8146C65.0864 32.8146 65.5833 32.8146 66.5359 32.7733C67.6956 32.732 68.3169 32.6906 68.7311 32.6081C69.1867 32.5254 69.808 32.4017 70.512 32.0713C70.9263 31.8649 71.2575 31.6584 71.8788 31.5347C72.5001 31.4106 72.7072 31.5347 72.8315 31.6172C73.0386 31.7413 73.1214 31.9889 73.2043 32.1954C73.3285 32.4844 73.3285 32.6907 73.3285 32.8148C73.3285 32.9799 73.3285 33.0625 73.3285 33.3101C73.3285 33.7232 73.3699 33.7232 73.3699 34.2599C73.3699 34.5903 73.3699 34.8793 73.3285 35.1271C73.3285 35.375 73.2871 35.5402 73.2457 35.7465C73.2043 35.9117 73.1627 36.0357 73.1213 36.1596C73.0799 36.2835 72.997 36.3661 72.8728 36.4898C72.7899 36.6138 72.5 36.7376 72.0858 36.9027C71.6302 37.0679 71.0917 37.2744 70.429 37.4396C69.7663 37.6047 68.9793 37.7698 68.1094 37.8938C67.2396 38.0178 66.2869 38.1003 65.293 38.1003C63.512 38.1003 61.9381 37.8938 60.5711 37.4396C59.2042 36.9853 58.0859 36.2833 57.1747 35.3749C56.2633 34.4662 55.6007 33.3101 55.1451 31.9061C54.6894 30.5022 54.4824 28.8502 54.4824 26.9922C54.4824 25.2167 54.7311 23.5649 55.1865 22.1609C55.6422 20.7155 56.3463 19.5181 57.2161 18.4859C58.1273 17.4948 59.2042 16.7102 60.4882 16.1733C61.7722 15.6364 63.2218 15.3887 64.7957 15.3887C66.4939 15.3887 67.9436 15.6364 69.1449 16.132C70.3459 16.6273 71.3399 17.3295 72.0856 18.1967C72.8726 19.0638 73.4109 20.1375 73.7838 21.335C74.1566 22.5324 74.3223 23.854 74.3223 25.258L74.3226 26.0831H74.2812L74.281 26.0835ZM67.7782 23.8951C67.8196 23.6472 68.0267 22.3671 67.1569 21.3349C66.66 20.7155 65.9971 20.509 65.7072 20.3851C65.5415 20.3438 64.7546 20.0549 63.7605 20.2612C63.4706 20.3025 63.0565 20.3851 62.6423 20.6742C61.9796 21.0871 61.6483 21.7065 61.524 21.9543C61.1098 22.7802 61.1928 23.5235 61.2341 23.8951C63.3877 23.8951 65.5829 23.8951 67.7782 23.8951Z" fill="#53D500"/>
<path d="M96.4209 11.2793C96.4209 11.7278 96.4052 12.1003 96.3655 12.4043C96.3259 12.7084 96.2623 12.9516 96.1752 13.1341C96.0879 13.3089 95.9929 13.4457 95.8897 13.5293C95.7787 13.6205 95.6519 13.6662 95.5169 13.6662H85.668V21.4202H94.9063C95.049 21.4202 95.1759 21.4582 95.2791 21.5341C95.3902 21.6025 95.4853 21.7317 95.5725 21.9065C95.6598 22.089 95.7151 22.3246 95.7548 22.6211C95.7944 22.9176 95.8182 23.2901 95.8182 23.7386C95.8182 24.1795 95.7944 24.552 95.7548 24.8485C95.7151 25.1448 95.6596 25.3881 95.5725 25.5858C95.4852 25.7759 95.3902 25.9128 95.2791 25.9964C95.1759 26.08 95.049 26.1181 94.9063 26.1181H85.668V36.8594C85.668 37.0191 85.6204 37.1636 85.5252 37.2851C85.4379 37.399 85.2715 37.4979 85.0255 37.5815C84.7877 37.6652 84.4705 37.726 84.09 37.7716C83.7013 37.8172 83.2017 37.84 82.599 37.84C82.0123 37.84 81.5206 37.8172 81.1241 37.7716C80.7276 37.726 80.4105 37.6652 80.1807 37.5815C79.9506 37.5055 79.7841 37.399 79.681 37.2851C79.5778 37.1634 79.5303 37.019 79.5303 36.8594V10.7243C79.5303 10.0705 79.7047 9.59926 80.0537 9.31035C80.4028 9.02144 80.8308 8.87698 81.3462 8.87698H95.5169C95.6519 8.87698 95.7787 8.91502 95.8897 8.99864C95.9929 9.08227 96.0881 9.21148 96.1752 9.40152C96.2625 9.58401 96.3259 9.83474 96.3655 10.1464C96.4052 10.4581 96.4209 10.8382 96.4209 11.2791V11.2793ZM106.888 36.9507C106.888 37.0952 106.841 37.2244 106.746 37.3385C106.658 37.4525 106.5 37.5438 106.27 37.6199C106.048 37.6882 105.747 37.7491 105.382 37.7871C105.009 37.8252 104.533 37.8404 103.962 37.8404C103.391 37.8404 102.915 37.8252 102.543 37.7871C102.178 37.7491 101.877 37.6882 101.655 37.6199C101.424 37.5438 101.266 37.4526 101.179 37.3385C101.083 37.2245 101.036 37.0952 101.036 36.9507V17.1099C101.036 16.9654 101.083 16.8362 101.179 16.7221C101.266 16.6081 101.424 16.5094 101.655 16.4334C101.877 16.3497 102.178 16.2889 102.543 16.2433C102.915 16.1977 103.391 16.1749 103.962 16.1749C104.533 16.1749 105.009 16.1977 105.382 16.2433C105.747 16.2889 106.048 16.3497 106.27 16.4334C106.5 16.5094 106.658 16.6081 106.746 16.7221C106.841 16.8361 106.888 16.9654 106.888 17.1099V36.9507ZM107.364 10.3137C107.364 11.4464 107.126 12.2218 106.643 12.6552C106.159 13.0885 105.271 13.3012 103.962 13.3012C102.646 13.3012 101.75 13.0961 101.298 12.678C100.838 12.2598 100.608 11.5074 100.608 10.4278C100.608 9.2951 100.846 8.51214 101.322 8.07123C101.79 7.63786 102.686 7.41748 104.01 7.41748C105.31 7.41748 106.199 7.63032 106.666 8.05613C107.134 8.47411 107.364 9.22672 107.364 10.3138L107.364 10.3137ZM125 34.997C125 35.6508 124.961 36.1525 124.873 36.5021C124.786 36.8519 124.675 37.095 124.533 37.2318C124.398 37.3763 124.192 37.5055 123.922 37.6119C123.644 37.7258 123.327 37.8247 122.963 37.9008C122.606 37.9844 122.209 38.0452 121.781 38.0908C121.353 38.1364 120.924 38.1592 120.488 38.1592C119.331 38.1592 118.323 38.0148 117.467 37.7335C116.619 37.4522 115.913 37.019 115.35 36.4336C114.795 35.8482 114.382 35.1108 114.121 34.2138C113.859 33.3244 113.724 32.2676 113.724 31.0515V20.8725H111.21C110.917 20.8725 110.687 20.6977 110.536 20.348C110.378 19.9983 110.298 19.413 110.298 18.5919C110.298 18.1587 110.314 17.7937 110.354 17.4972C110.393 17.2008 110.457 16.965 110.536 16.7902C110.608 16.6229 110.71 16.5014 110.829 16.4254C110.94 16.3493 111.083 16.3114 111.234 16.3114H113.724V11.8642C113.724 11.7198 113.763 11.5829 113.851 11.4615C113.938 11.3475 114.097 11.2487 114.319 11.165C114.541 11.0814 114.85 11.0206 115.231 10.9825C115.611 10.9445 116.079 10.9293 116.642 10.9293C117.213 10.9293 117.689 10.9445 118.07 10.9825C118.45 11.0206 118.752 11.0814 118.974 11.165C119.188 11.2487 119.346 11.3475 119.434 11.4615C119.529 11.583 119.576 11.7199 119.576 11.8642V16.3114H124.072C124.231 16.3114 124.366 16.3494 124.477 16.4254C124.596 16.5014 124.691 16.6229 124.77 16.7902C124.849 16.965 124.905 17.2008 124.945 17.4972C124.984 17.7937 125 18.1587 125 18.5919C125 19.4129 124.921 19.9983 124.77 20.348C124.612 20.6977 124.389 20.8725 124.096 20.8725H119.576V30.2077C119.576 31.2948 119.75 32.1081 120.107 32.6479C120.464 33.1876 121.098 33.4613 122.01 33.4613C122.32 33.4613 122.597 33.4385 122.843 33.3852C123.089 33.3319 123.311 33.2713 123.501 33.2027C123.699 33.1419 123.858 33.0811 123.993 33.0279C124.12 32.9747 124.246 32.9519 124.35 32.9519C124.445 32.9519 124.532 32.9747 124.619 33.0279C124.699 33.0812 124.77 33.1799 124.817 33.3396C124.857 33.4915 124.905 33.7045 124.944 33.9705C124.984 34.2441 125 34.5786 125 34.9967L125 34.997Z" fill="black"/>
</g>
<defs>
<clipPath id="clip0">
<rect width="125" height="43" fill="white"/>
</clipPath>
</defs>
</svg>
