<svg width="66" height="23" viewBox="0 0 66 23" fill="none" xmlns="http://www.w3.org/2000/svg">
<g clip-path="url(#clip0)">
<path fill-rule="evenodd" clip-rule="evenodd" d="M0.992618 4.49013C0.972943 4.47026 0.953268 4.45039 0.933594 4.41064L0.992618 4.49013Z" fill="#00FF00"/>
<path fill-rule="evenodd" clip-rule="evenodd" d="M4.35595 17.0666C3.84449 17.0467 2.78221 17.007 2.52644 16.9871C2.07401 16.9672 1.71986 16.9474 1.01173 16.8878C0.972384 16.8878 0.854336 16.8679 0.795312 16.7884C0.696939 16.689 0.736288 16.5302 0.736288 16.4705C0.775638 16.2123 0.775638 15.6361 0.736288 14.7619C0.736288 14.7023 0.755963 14.5831 0.834661 14.4837C0.952709 14.3049 1.11011 14.2255 1.16905 14.2055C1.2871 14.1459 1.38547 14.1459 1.50344 14.126C1.50344 14.126 1.60181 14.1061 1.70019 14.126C2.27067 14.1459 3.09693 14.3446 3.09693 14.3446C3.35262 14.4042 3.74611 14.5036 4.25758 14.6228C4.3166 14.6427 4.45432 14.7023 4.55262 14.8414C4.72961 15.0599 4.71001 15.3182 4.71001 15.3778C4.71001 15.8348 4.71001 16.3116 4.71001 16.7685C4.71001 16.7884 4.69034 16.9275 4.57229 17.0069C4.49367 17.0665 4.3953 17.0665 4.35595 17.0665V17.0666Z" fill="#53D500"/>
<path fill-rule="evenodd" clip-rule="evenodd" d="M3.80518 14.1462C2.95933 13.9674 2.09372 13.7885 1.24787 13.6097C0.972424 13.6097 0.736407 13.3714 0.736407 13.0932L0.736328 9.37789C0.736328 9.0997 0.972345 8.86133 1.24779 8.86133H4.21827C4.49371 8.86133 4.72973 9.0997 4.72973 9.37789C4.72973 10.8878 4.71005 12.378 4.71005 13.8879C4.71005 13.9476 4.71005 13.9873 4.69038 14.0072C4.6116 14.1859 4.25762 14.2455 3.80518 14.1462Z" fill="black"/>
<path fill-rule="evenodd" clip-rule="evenodd" d="M5.67425 0.158882H4.82832V3.45697C4.82832 3.45697 4.82832 3.47684 4.82832 3.49671V3.87418C4.82832 3.91392 4.80865 3.93379 4.80865 3.97353C4.71027 4.2119 4.47426 4.45035 4.15946 4.47022C3.70702 4.4901 3.45133 4.03314 3.4119 3.97353C3.35288 3.85431 3.31353 3.73516 3.29386 3.65568L3.29394 0.119141H2.34963V3.81457C2.32996 3.85431 2.31028 3.91392 2.29061 3.95366C2.25126 4.01327 1.99557 4.4901 1.54305 4.45035C1.22834 4.43048 1.01191 4.19211 0.91362 3.97353V0.119141H0.00874428V6.3179C0.00874428 6.41725 -0.0109303 6.53648 0.00874428 6.65562C0.00874428 6.69536 0.00874428 6.71524 0.0284189 6.75498C0.225165 7.7087 1.58248 8.50337 2.86117 8.46363C4.13979 8.50337 5.49718 7.70862 5.69393 6.75498C5.69393 6.73511 5.69393 6.71524 5.69393 6.71524L5.7136 6.71539V0.158961H5.67433L5.67425 0.158882Z" fill="black"/>
<path fill-rule="evenodd" clip-rule="evenodd" d="M4.13985 20.2056H1.24808C0.953036 20.2056 0.697266 19.9672 0.697266 19.6493V18.199C0.697266 17.901 0.933283 17.6427 1.24808 17.6427L4.13985 17.6426C4.43489 17.6426 4.69067 17.8809 4.69067 18.1989V19.6492C4.69067 19.9672 4.43497 20.2055 4.13985 20.2055V20.2056Z" fill="#42A900"/>
<path fill-rule="evenodd" clip-rule="evenodd" d="M4.21888 22.9279C3.27457 22.9279 2.3501 22.9279 1.4058 22.9279C1.34677 22.9279 1.18938 22.9279 1.01238 22.8087C0.815638 22.6497 0.795963 22.451 0.776367 22.4113C0.776367 22.014 0.776367 21.6166 0.776367 21.2192C0.776367 21.0205 0.933764 20.8418 1.15011 20.8418C2.17303 20.802 3.19595 20.7424 4.23855 20.7027C4.25823 20.7027 4.39595 20.6629 4.53359 20.7623C4.63197 20.8219 4.65164 20.9213 4.67131 20.961C4.67131 21.7558 4.67131 22.3517 4.65164 22.61C4.65164 22.6498 4.65164 22.7491 4.57294 22.8484C4.43522 22.9676 4.2188 22.9279 4.2188 22.9279H4.21888Z" fill="#53D500"/>
<path fill-rule="evenodd" clip-rule="evenodd" d="M10.1 14.3646C9.25414 14.2851 8.40821 14.1858 7.54268 14.1063C7.48366 14.0865 7.38529 14.0467 7.30667 13.9474C7.09025 13.709 7.18862 13.3712 7.20829 13.3513C7.18862 9.27842 7.16895 5.22532 7.16895 1.15243C7.16895 0.516721 7.68041 7.91667e-05 8.30992 7.91667e-05L9.68691 0C10.3163 0 10.8279 0.516563 10.8279 1.15235C10.8279 5.40408 10.8279 9.67568 10.8279 13.9273C10.8279 13.9472 10.8082 14.1856 10.5919 14.3247C10.3558 14.4638 10.1197 14.3844 10.1001 14.3645L10.1 14.3646Z" fill="black"/>
<path fill-rule="evenodd" clip-rule="evenodd" d="M10.2182 17.4841H8.27068C7.95597 17.4841 7.7002 17.2258 7.7002 16.9079C7.71987 16.3715 7.73954 15.8549 7.75922 15.3185C7.75922 15.2986 7.7002 15.0801 7.85759 14.9211C7.99531 14.7622 8.21174 14.782 8.23133 14.782C8.90019 14.8218 9.56905 14.8615 10.2182 14.9211C10.5329 14.9211 10.7887 15.1794 10.7887 15.4973V16.908C10.8084 17.2258 10.5527 17.4841 10.2182 17.4841H10.2182Z" fill="#42A900"/>
<path fill-rule="evenodd" clip-rule="evenodd" d="M10.6707 19.8877C10.592 19.9672 10.4937 19.987 10.4543 19.987C10.1593 20.0467 9.29367 20.1858 8.11343 20.3645C8.0544 20.3645 7.89701 20.3645 7.79871 20.2453C7.70034 20.1459 7.68066 20.0267 7.68066 19.9473C7.70034 19.4307 7.72001 19.0334 7.72001 18.7552C7.72001 18.4374 7.72001 18.2784 7.81839 18.1195C8.01513 17.8413 8.42822 17.8413 8.60529 17.8413C9.21513 17.8612 9.84464 17.8612 10.4545 17.8811C10.4938 17.8811 10.5528 17.9009 10.6315 17.9605C10.7102 18.0201 10.7298 18.0996 10.7495 18.1393C10.7692 18.5168 10.7889 18.8943 10.8085 19.2718C10.8281 19.4706 10.8281 19.7487 10.6707 19.8878V19.8877Z" fill="#53D500"/>
<path fill-rule="evenodd" clip-rule="evenodd" d="M10.2777 22.7888C10.2384 22.8286 10.1793 22.8683 10.1007 22.9081C9.8647 23.0472 9.70731 22.9876 9.17617 22.9876C8.68438 22.9876 8.52699 23.0273 8.31057 22.9081C8.23187 22.8683 8.17284 22.8087 8.13357 22.769C7.99585 22.6498 7.81886 22.471 7.75983 22.1928C7.72048 22.0537 7.74016 22.014 7.74016 21.6365C7.72048 21.1001 7.68113 21.0008 7.74016 20.9014C7.87788 20.6828 8.21227 20.663 8.40902 20.6431C9.0582 20.6034 9.76633 20.5438 10.5729 20.4644C10.6123 20.4644 10.6713 20.4644 10.7106 20.5041C10.7106 20.5041 10.75 20.5438 10.7697 20.6035C10.809 20.7028 10.7893 21.2591 10.75 21.9942C10.75 22.014 10.75 22.014 10.75 22.0339C10.7303 22.1333 10.691 22.2723 10.6123 22.4114C10.5138 22.6099 10.3762 22.7292 10.2777 22.7888V22.7888Z" fill="#42A900"/>
<path fill-rule="evenodd" clip-rule="evenodd" d="M26.9956 15.3216C26.9956 15.8738 26.9081 16.3818 26.7769 16.8457C26.6238 17.3095 26.4052 17.7071 26.1427 18.0604C25.8804 18.4138 25.5523 18.7009 25.1805 18.9661C24.8088 19.209 24.3932 19.4299 23.934 19.5844C23.4746 19.7391 22.9936 19.8716 22.4906 19.9378C21.9877 20.0262 21.419 20.0483 20.7848 20.0483L16.6298 20.0485C16.3673 20.0485 16.1486 19.9602 15.9518 19.8055C15.7769 19.6509 15.6895 19.3859 15.6895 19.0324V5.27189C15.6895 4.91848 15.7769 4.65351 15.9518 4.49882C16.1268 4.34421 16.3673 4.25586 16.6298 4.25586H20.5662C21.5284 4.25586 22.3376 4.34421 22.9937 4.49882C23.6498 4.65351 24.2184 4.91849 24.6776 5.22771C25.1369 5.55902 25.4868 5.97869 25.7274 6.4867C25.968 6.99463 26.0991 7.59108 26.0991 8.27571C26.0991 8.6512 26.0553 9.02668 25.946 9.358C25.8586 9.68931 25.7054 9.99854 25.5304 10.2857C25.3556 10.5727 25.115 10.8157 24.8525 11.0146C24.5901 11.2354 24.2839 11.39 23.9341 11.5226C24.3714 11.6109 24.787 11.7435 25.1587 11.9422C25.5304 12.141 25.8586 12.4061 26.1429 12.7373C26.4272 13.0686 26.6459 13.4441 26.799 13.8638C26.9302 14.3056 26.9959 14.7914 26.9959 15.3215L26.9956 15.3216ZM22.5124 8.87215C22.5124 8.76171 22.5343 8.45249 22.4687 8.16535C22.4687 8.12118 22.403 7.87829 22.2718 7.67942L22.25 7.65734C22.2062 7.61316 22.1187 7.48072 21.9657 7.39237C21.9438 7.37028 21.9219 7.37028 21.9 7.34819C21.8782 7.3261 21.7469 7.28185 21.572 7.21559C21.4627 7.1935 21.3096 7.14932 21.1346 7.14932C20.5223 7.14932 19.9319 7.14932 19.3195 7.17141C19.3195 8.23161 19.3195 9.29174 19.3195 10.352C20.3472 10.3741 21.1346 10.3741 21.4627 10.352C21.5501 10.352 21.6814 10.3299 21.8344 10.2416C21.9 10.2195 22.0312 10.1311 22.1624 9.93235C22.4686 9.57903 22.4904 9.13736 22.5123 8.87223L22.5124 8.87215ZM23.256 15.6088C23.3434 15.2113 23.2998 14.902 23.2778 14.8137C23.256 14.6591 23.2121 14.4603 23.081 14.2174C22.9717 14.0407 22.8404 13.9303 22.753 13.842C22.578 13.6873 22.403 13.599 22.2062 13.5107C22.0531 13.4443 21.9219 13.3781 21.8344 13.356C21.0034 13.356 20.1724 13.356 19.3413 13.356C19.3413 14.5046 19.3413 15.631 19.3413 16.7796C20.2161 16.7796 21.069 16.7796 21.9437 16.7796C22.1187 16.7575 22.2718 16.7132 22.3592 16.6691C22.4249 16.647 22.5561 16.5808 22.7091 16.4703C22.7966 16.404 22.8841 16.3156 22.9934 16.1832C23.1685 15.9843 23.2121 15.7634 23.2559 15.6088L23.256 15.6088Z" fill="#53D500"/>
<path fill-rule="evenodd" clip-rule="evenodd" d="M39.2203 13.952C39.2421 14.0183 39.3077 14.438 39.0453 14.8355C38.8047 15.1889 38.433 15.2994 38.3456 15.2994C36.2898 15.2994 34.2561 15.2994 32.2003 15.3215C32.2003 15.5202 32.2222 15.8516 32.3534 16.205C32.4191 16.3817 32.5502 16.7351 32.8783 17.0443C33.3375 17.4639 33.928 17.5081 34.2998 17.5523C34.3655 17.5523 34.6278 17.5523 35.1308 17.5302C35.7432 17.5081 36.0712 17.486 36.2899 17.4419C36.5305 17.3976 36.8585 17.3314 37.2302 17.1547C37.449 17.0443 37.6239 16.9339 37.9519 16.8677C38.2799 16.8013 38.3893 16.8677 38.4549 16.9118C38.5642 16.9782 38.608 17.1106 38.6517 17.2211C38.7173 17.3757 38.7173 17.486 38.7173 17.5524C38.7173 17.6407 38.7173 17.6849 38.7173 17.8174C38.7173 18.0383 38.7392 18.0383 38.7392 18.3254C38.7392 18.5021 38.7392 18.6567 38.7173 18.7892C38.7173 18.9218 38.6955 19.0102 38.6736 19.1205C38.6517 19.2089 38.6298 19.2752 38.6079 19.3415C38.586 19.4077 38.5423 19.4519 38.4767 19.5181C38.433 19.5844 38.2799 19.6506 38.0612 19.739C37.8206 19.8273 37.5363 19.9378 37.1864 20.0261C36.8365 20.1145 36.421 20.2027 35.9616 20.2691C35.5024 20.3354 34.9994 20.3795 34.4746 20.3795C33.5342 20.3795 32.7032 20.2691 31.9814 20.0261C31.2597 19.7831 30.6692 19.4077 30.1881 18.9217C29.7069 18.4357 29.3571 17.8174 29.1165 17.0664C28.8759 16.3154 28.7666 15.4318 28.7666 14.438C28.7666 13.4883 28.8979 12.6048 29.1384 11.8538C29.3789 11.0807 29.7507 10.4402 30.21 9.88809C30.6911 9.35799 31.2597 8.93833 31.9377 8.65111C32.6156 8.36397 33.381 8.23145 34.212 8.23145C35.1086 8.23145 35.8741 8.36397 36.5084 8.62902C37.1425 8.89399 37.6674 9.26956 38.0611 9.7334C38.4766 10.1972 38.7608 10.7715 38.9577 11.412C39.1546 12.0525 39.242 12.7594 39.242 13.5104L39.2422 13.9517H39.2203L39.2203 13.952ZM35.7868 12.7814C35.8086 12.6488 35.918 11.9641 35.4587 11.412C35.1964 11.0807 34.8464 10.9702 34.6933 10.904C34.6058 10.8819 34.1903 10.7273 33.6654 10.8377C33.5123 10.8598 33.2937 10.904 33.075 11.0586C32.7251 11.2794 32.5502 11.6108 32.4846 11.7433C32.2659 12.185 32.3097 12.5826 32.3315 12.7814C33.4686 12.7814 34.6277 12.7814 35.7868 12.7814Z" fill="#53D500"/>
<path d="M50.9104 6.03339C50.9104 6.27327 50.9021 6.47253 50.8812 6.63514C50.8603 6.79783 50.8267 6.9279 50.7807 7.02551C50.7346 7.11901 50.6845 7.19216 50.63 7.23688C50.5713 7.28565 50.5044 7.31011 50.4332 7.31011H45.2329V11.4576H50.1108C50.1861 11.4576 50.2531 11.4779 50.3076 11.5185C50.3662 11.5551 50.4165 11.6242 50.4625 11.7177C50.5086 11.8153 50.5378 11.9414 50.5587 12.0999C50.5797 12.2585 50.5922 12.4578 50.5922 12.6976C50.5922 12.9335 50.5797 13.1327 50.5587 13.2913C50.5378 13.4498 50.5085 13.58 50.4625 13.6857C50.4164 13.7874 50.3662 13.8606 50.3076 13.9053C50.2531 13.9501 50.1861 13.9704 50.1108 13.9704H45.2329V19.7158C45.2329 19.8012 45.2078 19.8785 45.1575 19.9435C45.1114 20.0044 45.0236 20.0573 44.8937 20.102C44.7681 20.1468 44.6006 20.1793 44.3997 20.2037C44.1945 20.2281 43.9307 20.2403 43.6125 20.2403C43.3027 20.2403 43.0431 20.2281 42.8337 20.2037C42.6244 20.1793 42.4569 20.1468 42.3356 20.102C42.2141 20.0613 42.1262 20.0044 42.0717 19.9435C42.0173 19.8784 41.9922 19.8011 41.9922 19.7158V5.73652C41.9922 5.38684 42.0843 5.13477 42.2686 4.98024C42.4529 4.8257 42.6788 4.74844 42.951 4.74844H50.4332C50.5044 4.74844 50.5713 4.76878 50.63 4.81351C50.6845 4.85824 50.7347 4.92735 50.7807 5.029C50.8268 5.12662 50.8603 5.26072 50.8812 5.42745C50.9021 5.59417 50.9104 5.79748 50.9104 6.03331V6.03339ZM56.4373 19.7646C56.4373 19.8419 56.4122 19.911 56.362 19.972C56.3159 20.033 56.2321 20.0818 56.1106 20.1225C55.9934 20.1591 55.8344 20.1917 55.6418 20.212C55.4449 20.2323 55.1938 20.2405 54.8923 20.2405C54.5908 20.2405 54.3395 20.2323 54.1427 20.212C53.9502 20.1917 53.7911 20.1591 53.6738 20.1225C53.5523 20.0818 53.4686 20.0331 53.4225 19.972C53.3723 19.9111 53.3472 19.8419 53.3472 19.7646V9.15209C53.3472 9.07482 53.3723 9.00571 53.4225 8.94467C53.4686 8.88371 53.5523 8.83091 53.6738 8.79022C53.7911 8.74549 53.9502 8.71295 54.1427 8.68856C54.3395 8.66418 54.5908 8.65199 54.8923 8.65199C55.1937 8.65199 55.4449 8.66418 55.6418 8.68856C55.8344 8.71295 55.9934 8.74549 56.1106 8.79022C56.2321 8.83091 56.3159 8.88371 56.362 8.94467C56.4122 9.00563 56.4373 9.07482 56.4373 9.15209V19.7646ZM56.6886 5.51691C56.6886 6.12277 56.5629 6.53753 56.3076 6.76933C56.0521 7.00113 55.5832 7.11489 54.8924 7.11489C54.1973 7.11489 53.7241 7.00516 53.4855 6.78152C53.2427 6.55787 53.1213 6.15539 53.1213 5.57795C53.1213 4.97208 53.2469 4.55329 53.4981 4.31745C53.7451 4.08565 54.2182 3.96777 54.9175 3.96777C55.6041 3.96777 56.073 4.08162 56.32 4.30938C56.5671 4.53294 56.6885 4.93551 56.6885 5.51699L56.6886 5.51691ZM66.0004 18.7196C66.0004 19.0693 65.9795 19.3377 65.9334 19.5247C65.8873 19.7117 65.8287 19.8418 65.7534 19.915C65.6822 19.9922 65.5734 20.0613 65.4309 20.1183C65.2844 20.1792 65.1168 20.2321 64.9244 20.2728C64.736 20.3175 64.5266 20.3501 64.3005 20.3744C64.0744 20.3988 63.8483 20.411 63.618 20.411C63.0067 20.411 62.4749 20.3338 62.0228 20.1833C61.5748 20.0328 61.2021 19.8011 60.9048 19.488C60.6117 19.1749 60.394 18.7805 60.2559 18.3007C60.1177 17.825 60.0465 17.2597 60.0465 16.6092V11.1647H58.7191C58.5643 11.1647 58.4428 11.0712 58.3634 10.8841C58.2796 10.697 58.2377 10.384 58.2377 9.94478C58.2377 9.71306 58.2461 9.51784 58.267 9.35927C58.2879 9.20069 58.3214 9.07458 58.3633 8.98109C58.401 8.89163 58.4553 8.82663 58.5181 8.78594C58.5767 8.74525 58.6521 8.72498 58.7317 8.72498H60.0464V6.34626C60.0464 6.26899 60.0673 6.19576 60.1134 6.13085C60.1595 6.06989 60.2432 6.017 60.3604 5.97228C60.4777 5.92755 60.641 5.89501 60.842 5.87466C61.0429 5.85432 61.2899 5.84616 61.5872 5.84616C61.8887 5.84616 62.1399 5.85432 62.3409 5.87466C62.5419 5.89501 62.701 5.92755 62.8183 5.97228C62.9313 6.017 63.0151 6.06989 63.0611 6.13085C63.1113 6.19584 63.1364 6.26907 63.1364 6.34626V8.72498H65.5104C65.5941 8.72498 65.6653 8.74533 65.7239 8.78594C65.7868 8.82663 65.837 8.89163 65.8788 8.98109C65.9207 9.07458 65.95 9.20069 65.9709 9.35927C65.9918 9.51784 66.0002 9.71306 66.0002 9.94478C66.0002 10.3839 65.9583 10.697 65.8787 10.8841C65.7951 11.0712 65.6778 11.1647 65.5229 11.1647H63.1362V16.1579C63.1362 16.7393 63.2283 17.1744 63.4168 17.4631C63.6052 17.7518 63.9402 17.8982 64.4216 17.8982C64.5849 17.8982 64.7315 17.886 64.8612 17.8575C64.991 17.829 65.1083 17.7965 65.2087 17.7599C65.3134 17.7273 65.3971 17.6948 65.4684 17.6664C65.5353 17.6379 65.6024 17.6257 65.6568 17.6257C65.7071 17.6257 65.7531 17.6379 65.7992 17.6664C65.8411 17.6949 65.8787 17.7477 65.9038 17.8331C65.9248 17.9143 65.9499 18.0283 65.9709 18.1705C65.9917 18.3169 66.0001 18.4958 66.0001 18.7195L66.0004 18.7196Z" fill="black"/>
</g>
<defs>
<clipPath id="clip0">
<rect width="66" height="23" fill="white"/>
</clipPath>
</defs>
</svg>
